<?xml version="1.0" standalone="no"?>
<!DOCTYPE svg PUBLIC "-//W3C//DTD SVG 20010904//EN"
 "http://www.w3.org/TR/2001/REC-SVG-20010904/DTD/svg10.dtd">
<svg version="1.0" xmlns="http://www.w3.org/2000/svg"
 width="300.000000pt" height="297.000000pt" viewBox="0 0 300.000000 297.000000"
 preserveAspectRatio="xMidYMid meet">
<metadata>
Created by potrace 1.10, written by Peter Selinger 2001-2011
</metadata>
<g transform="translate(0.000000,297.000000) scale(0.100000,-0.100000)"
fill="#000000" stroke="none">
<path d="M1207 2940 c-29 -34 -41 -96 -57 -299 -9 -109 -9 -136 3 -150 7 -9
21 -32 31 -51 17 -32 17 -46 7 -138 -6 -57 -11 -107 -11 -112 0 -20 -57 -10
-78 13 -26 27 -31 57 -7 37 20 -17 19 -7 -5 40 -23 44 -26 91 -8 123 10 20 10
21 -5 8 -15 -11 -17 -11 -17 1 0 20 26 53 42 53 7 0 14 10 16 23 5 31 -14 28
-50 -9 l-31 -30 6 -93 c8 -135 32 -181 100 -195 l32 -7 8 -94 7 -95 -27 -24
c-49 -43 -98 -118 -113 -170 -12 -46 -17 -52 -54 -65 -23 -8 -53 -17 -67 -20
-14 -3 -38 -15 -53 -27 -22 -17 -25 -24 -14 -31 10 -8 10 -9 -2 -5 -15 4 -60
-16 -94 -43 -15 -12 -18 -12 -11 -1 22 38 -184 -38 -265 -98 -51 -37 -110 -97
-110 -110 0 -6 -11 -33 -25 -60 -25 -50 -32 -76 -61 -222 -15 -80 -15 -88 0
-118 15 -28 17 -67 15 -299 -1 -147 2 -280 5 -297 10 -40 47 -135 62 -160 7
-11 26 -56 43 -101 38 -99 52 -119 76 -110 16 6 16 8 2 24 -8 9 -35 57 -61
107 -25 50 -37 80 -27 68 l19 -22 5 21 c4 14 -4 35 -23 62 -16 23 -41 74 -55
115 -28 80 -29 109 -1 36 11 -27 22 -42 29 -38 6 4 8 0 4 -10 -4 -10 -2 -30 4
-45 9 -24 11 -25 20 -9 8 13 3 33 -20 81 -17 34 -31 72 -31 84 0 11 -4 23 -9
27 -11 6 -10 -1 -15 170 -2 72 -2 115 1 97 3 -21 8 -30 16 -26 8 5 8 3 0 -7
-19 -20 -17 -60 3 -52 19 7 14 91 -8 126 -16 23 -35 132 -20 109 5 -7 17 -10
28 -7 19 6 19 6 0 -9 -22 -18 -14 -51 10 -42 9 3 20 6 25 6 19 0 8 26 -26 63
-18 20 -41 37 -49 37 -9 0 -16 5 -16 10 0 7 6 7 20 0 17 -9 20 -8 17 12 -1 13
-8 29 -15 37 -8 9 -11 24 -7 40 8 33 25 52 25 28 0 -9 5 -17 10 -17 6 0 11 26
11 58 2 73 4 87 19 142 15 58 52 123 61 109 3 -6 17 -9 30 -6 l24 4 -23 8
c-12 4 -22 16 -22 26 0 25 17 24 25 -1 4 -12 15 -20 28 -20 20 1 21 2 5 14
-19 14 -24 36 -9 36 11 0 61 -58 61 -71 0 -5 7 -9 15 -9 8 0 15 -7 15 -15 0
-8 9 -23 21 -34 12 -11 18 -24 14 -30 -3 -7 -3 -10 2 -9 12 4 53 -25 53 -38 0
-6 7 -17 15 -24 17 -14 21 -35 5 -25 -6 3 -10 2 -10 -2 0 -5 9 -14 21 -21 12
-7 18 -16 15 -19 -3 -3 -12 0 -21 7 -12 10 -15 10 -15 -1 0 -8 15 -21 32 -29
27 -13 33 -21 36 -55 2 -22 9 -44 15 -48 9 -6 9 -10 0 -14 -15 -5 -18 -63 -4
-63 5 0 7 10 4 23 -4 18 -3 19 6 7 6 -8 11 -23 11 -32 0 -17 20 -27 20 -10 0
28 -56 219 -68 229 -7 6 -11 17 -7 22 7 13 -3 51 -13 50 -20 -3 -32 2 -32 15
0 7 -11 25 -25 38 -14 14 -37 43 -51 64 -34 51 -76 93 -91 94 -17 0 -17 20 0
20 7 0 18 9 25 20 7 11 21 20 32 20 11 0 20 5 20 10 0 6 5 10 11 10 5 0 7 -4
4 -10 -3 -6 5 -10 19 -10 14 0 28 5 31 10 3 6 1 10 -4 10 -6 0 -11 4 -11 10 0
6 10 5 25 -2 20 -9 28 -8 43 5 21 19 38 22 47 7 3 -6 -5 -14 -19 -20 -17 -6
-24 -14 -20 -25 8 -19 9 -19 30 2 15 16 17 16 30 -3 7 -10 18 -24 24 -31 5 -7
10 -16 10 -22 0 -10 30 -24 38 -16 3 3 0 5 -7 5 -8 0 -10 7 -6 20 4 13 1 22
-9 26 -9 3 -14 10 -11 15 3 4 3 20 -1 35 -6 22 -8 24 -16 10 -10 -17 -28 -22
-28 -7 0 18 54 61 76 61 13 0 24 5 24 11 0 8 5 8 15 -1 8 -7 22 -9 31 -6 25
10 -3 38 -30 30 -14 -4 -18 -3 -11 4 6 5 24 13 42 17 28 6 31 4 26 -15 -5 -18
-2 -20 18 -15 20 5 24 2 25 -20 2 -25 -10 -34 -21 -15 -9 14 -46 -12 -40 -28
4 -10 0 -10 -18 0 -12 6 -36 13 -54 14 -26 1 -30 -1 -22 -15 5 -9 12 -31 17
-50 4 -19 14 -37 21 -39 10 -3 11 2 6 19 -4 13 -12 26 -16 27 -5 2 -9 8 -9 13
0 6 5 7 10 4 6 -3 10 1 10 9 0 22 19 20 27 -1 7 -21 22 -33 40 -33 9 0 11 10
7 30 -6 28 -4 30 21 30 22 0 25 -3 16 -14 -13 -15 -5 -46 13 -46 7 0 7 -3 -2
-8 -19 -12 -4 -102 17 -103 10 0 12 -2 4 -6 -14 -5 -18 -43 -5 -43 17 1 42 29
42 48 0 16 -5 19 -21 15 -21 -6 -21 -4 -15 41 7 45 -12 197 -23 193 -7 -2 -11
8 -11 24 0 7 9 9 23 5 29 -7 53 29 42 63 -3 11 -2 21 3 21 6 0 15 -23 22 -50
7 -28 17 -53 23 -57 7 -4 8 0 2 13 -13 30 -18 162 -6 144 10 -13 11 -13 12 0
1 8 1 18 0 23 0 4 6 7 14 7 10 0 15 -10 15 -32 0 -34 20 -98 30 -98 4 0 27
-31 51 -70 24 -38 47 -70 52 -70 4 0 5 -5 1 -12 -4 -7 -3 -8 4 -4 20 12 14 29
-35 96 -74 101 -74 100 -67 195 4 47 11 88 15 91 5 2 19 -17 33 -43 13 -26 48
-68 76 -93 29 -25 60 -52 69 -61 29 -29 80 -47 148 -54 68 -7 85 -2 28 9 -72
13 -109 26 -143 50 -42 29 -102 81 -102 88 0 3 14 3 30 0 27 -4 35 -12 28 -27
-7 -12 83 -65 133 -78 45 -11 59 -12 73 -2 14 11 10 14 -31 21 -26 4 -58 8
-71 9 -12 0 -33 13 -47 30 -13 17 -25 26 -25 20 -1 -5 -5 0 -10 13 -6 15 -18
22 -35 22 -14 0 -25 4 -25 8 0 5 -16 16 -35 25 -19 9 -40 29 -48 44 -28 55
-43 377 -19 406 15 18 52 124 51 146 0 9 -8 1 -16 -16 -9 -18 -20 -33 -23 -33
-4 0 -17 21 -29 48 -19 40 -21 57 -15 117 3 39 8 93 10 120 2 28 5 68 7 90 4
55 24 121 42 139 8 8 15 19 15 25 0 21 -28 11 -53 -19z"/>
<path d="M1846 2950 c23 -10 48 -26 55 -37 8 -10 23 -23 34 -28 11 -6 31 -34
45 -63 14 -29 32 -55 42 -57 9 -3 19 -13 22 -21 4 -11 2 -14 -6 -11 -52 21
-54 21 -29 -3 16 -16 20 -25 12 -28 -9 -3 -7 -9 5 -23 15 -17 15 -19 1 -19 -9
0 -19 9 -22 21 -4 11 -9 18 -12 16 -2 -3 3 -19 11 -36 21 -40 21 -58 1 -41
-12 10 -15 10 -15 -3 0 -8 -3 -24 -6 -34 -3 -11 -2 -14 3 -7 4 6 16 13 26 17
13 5 17 1 17 -18 0 -13 -4 -27 -10 -30 -5 -3 -10 -1 -10 5 0 6 -4 8 -10 5 -5
-3 -10 -26 -10 -50 0 -24 -7 -79 -15 -122 -14 -70 -21 -229 -8 -193 2 8 9 25
15 37 6 12 8 31 5 43 -3 12 5 47 18 78 24 57 48 184 60 320 7 71 6 75 -34 157
-45 90 -89 145 -117 145 -16 0 -16 -1 1 -20 10 -11 15 -20 10 -20 -4 0 -1 -8
6 -17 7 -10 -5 -1 -27 20 -28 26 -48 37 -69 36 -29 0 -29 -1 11 -19z"/>
<path d="M1606 2949 c5 -9 -1 -10 -22 -5 l-29 7 30 -19 c17 -10 36 -26 44 -35
7 -10 21 -17 30 -17 17 -1 61 -33 61 -45 0 -4 -8 -4 -17 0 -12 4 -14 3 -8 -3
6 -6 19 -12 30 -14 11 -2 19 -10 18 -16 -4 -17 24 -15 30 2 6 15 -11 36 -30
36 -7 0 -17 9 -23 19 -5 11 -23 22 -40 26 -16 4 -30 11 -30 16 0 6 10 8 23 4
12 -3 5 4 -16 15 -21 11 -35 25 -32 30 4 6 -1 10 -10 10 -10 0 -13 -5 -9 -11z"/>
<path d="M1866 2876 c3 -7 17 -19 32 -25 18 -9 22 -15 14 -20 -10 -6 -9 -11 4
-22 16 -12 17 -12 11 4 -9 24 2 21 37 -10 l29 -28 -22 33 c-12 17 -26 32 -31
32 -5 0 -20 11 -34 25 -27 27 -49 33 -40 11z"/>
<path d="M1630 2820 c23 -18 60 -27 60 -15 0 7 -57 35 -72 35 -7 0 -2 -9 12
-20z"/>
<path d="M1820 2785 c58 -25 61 -28 91 -85 16 -30 29 -48 29 -38 0 24 -38 91
-63 109 -12 9 -38 19 -57 23 l-35 6 35 -15z"/>
<path d="M1500 2770 c-22 -7 -20 -8 15 -9 22 -1 51 -4 65 -6 22 -5 21 -3 -5 9
-34 17 -40 17 -75 6z"/>
<path d="M1495 2730 c-4 -6 7 -10 24 -10 17 0 31 5 31 10 0 6 -11 10 -24 10
-14 0 -28 -4 -31 -10z"/>
<path d="M1690 2732 c0 -4 14 -20 30 -35 23 -22 30 -25 30 -12 0 9 5 13 10 10
6 -3 10 -1 10 4 0 6 -16 18 -36 26 -42 17 -44 18 -44 7z"/>
<path d="M1785 2720 c-3 -5 -5 -10 -3 -11 2 0 11 -2 21 -4 10 -2 24 -11 31
-21 9 -12 15 -14 20 -5 4 6 12 9 17 6 5 -4 9 -4 9 0 0 8 -63 45 -77 45 -6 0
-15 -4 -18 -10z"/>
<path d="M1580 2700 c-12 -8 -9 -10 13 -10 15 0 41 -7 56 -15 16 -8 31 -11 34
-8 4 3 15 0 24 -8 17 -13 17 -13 3 5 -29 36 -99 56 -130 36z"/>
<path d="M1424 2655 c-12 -8 -24 -11 -28 -8 -3 3 -6 1 -6 -6 0 -15 -30 -46
-52 -54 -27 -10 -21 -25 7 -20 13 3 27 13 30 22 3 9 21 26 40 39 19 12 35 27
35 32 0 13 -2 13 -26 -5z"/>
<path d="M1602 2644 c11 -11 25 -14 42 -10 40 10 31 26 -16 26 -39 0 -41 -1
-26 -16z"/>
<path d="M1550 2630 c-6 -11 -20 -20 -30 -20 -11 0 -20 -5 -20 -11 0 -5 -5 -7
-10 -4 -6 3 -13 -1 -16 -10 -4 -9 -13 -14 -20 -11 -8 3 -14 -1 -14 -10 0 -8 4
-13 8 -10 4 2 6 -10 4 -29 -2 -18 1 -36 7 -39 7 -5 11 5 11 28 0 30 6 39 37
61 21 14 44 25 51 25 8 0 12 6 9 14 -3 7 0 19 6 25 8 8 8 11 -1 11 -6 0 -16
-9 -22 -20z"/>
<path d="M1673 2553 c-17 -6 -4 -33 16 -33 17 0 41 18 41 31 0 7 -38 9 -57 2z"/>
<path d="M1116 2379 c-14 -11 -26 -27 -26 -35 0 -13 2 -13 16 0 8 9 24 21 35
26 19 11 26 30 10 30 -4 0 -20 -9 -35 -21z"/>
<path d="M2020 2345 c-10 -19 -10 -28 -1 -39 11 -14 1 -54 -31 -122 -5 -11 -8
-27 -6 -35 2 -8 -4 -13 -15 -13 -13 2 -17 -4 -15 -20 2 -17 -14 -39 -60 -82
-54 -52 -60 -62 -48 -74 12 -13 9 -23 -22 -76 -26 -44 -47 -66 -69 -75 -18 -7
-33 -16 -33 -21 0 -5 -11 -14 -25 -20 -14 -6 -25 -15 -25 -20 0 -5 5 -6 10 -3
13 8 13 -1 0 -26 -9 -15 -7 -19 6 -19 18 0 53 38 54 58 0 18 -18 14 -23 -5 -4
-16 -5 -16 -6 -1 -2 26 19 32 39 12 18 -18 18 -21 0 -72 -10 -29 -30 -74 -44
-99 -27 -48 -17 -46 34 8 14 14 30 24 37 22 8 -3 11 10 9 39 -2 49 12 101 25
92 5 -3 9 -10 9 -15 0 -6 -4 -7 -10 -4 -16 10 -12 -11 5 -25 8 -7 15 -20 16
-29 0 -10 2 -12 6 -3 2 6 9 10 14 6 14 -8 10 -47 -6 -68 -19 -25 -19 -40 0
-32 9 3 19 -3 25 -15 12 -21 30 -17 30 8 0 8 -9 17 -20 20 -22 6 -26 18 -9 29
6 3 9 15 6 25 -3 12 0 19 8 19 18 0 75 -58 75 -75 0 -16 38 -40 48 -31 3 4 -8
19 -25 35 -17 15 -34 37 -37 48 -4 12 -18 24 -32 27 -45 12 -72 36 -90 81
l-16 44 36 58 c19 32 46 85 59 118 13 33 36 74 52 90 15 17 41 68 57 115 44
126 50 243 8 165z"/>
<path d="M1485 2345 l30 -15 -45 2 c-81 2 -111 -2 -105 -12 8 -13 48 -13 62 1
8 8 14 5 22 -10 14 -25 34 -27 51 -6 18 22 30 18 30 -10 0 -25 13 -31 45 -19
14 6 13 10 -7 32 -21 23 -22 25 -3 20 11 -3 28 -9 38 -13 10 -4 17 -3 17 4 0
6 -14 14 -30 18 -17 3 -33 10 -36 14 -3 5 -26 9 -52 9 l-47 -1 30 -14z"/>
<path d="M1715 2292 c-28 -25 -31 -62 -6 -70 9 -3 11 0 6 7 -4 8 1 14 14 18
12 3 21 12 21 19 0 20 13 17 28 -6 14 -24 40 -26 48 -5 5 12 10 13 20 4 8 -6
12 -15 9 -19 -8 -12 24 -21 51 -14 37 9 29 18 -33 39 -32 10 -62 22 -67 26
-13 11 77 -2 91 -13 15 -12 33 -2 33 18 0 17 6 16 -102 18 -80 2 -90 0 -113
-22z"/>
<path d="M1440 2256 c28 -17 86 -21 95 -6 4 6 -9 10 -32 10 -21 0 -49 3 -63 6
l-25 5 25 -15z"/>
<path d="M1760 2211 c34 -27 52 -31 86 -15 29 12 29 12 -19 13 -27 1 -58 6
-70 12 -19 9 -18 7 3 -10z"/>
<path d="M1504 2071 c1 -19 10 -28 36 -38 32 -12 33 -12 16 2 -11 8 -25 15
-32 15 -7 0 -15 10 -17 23 -4 20 -4 20 -3 -2z"/>
<path d="M1425 2078 c-26 -15 -36 -30 -30 -45 2 -7 0 -13 -5 -13 -6 0 -10 -9
-10 -20 0 -12 7 -20 18 -20 9 0 31 -8 47 -18 37 -22 134 -46 161 -39 15 4 13
5 -7 6 -29 1 -90 21 -146 48 -36 17 -37 17 -13 24 25 7 25 7 -7 20 -41 17 -42
27 -3 40 17 6 30 15 30 20 0 12 -10 11 -35 -3z"/>
<path d="M1745 2049 c-4 -6 2 -17 14 -25 25 -18 28 -44 5 -44 -9 0 -18 -9 -21
-20 -4 -13 -17 -21 -42 -25 -20 -4 -45 -10 -56 -14 -18 -7 -16 -9 12 -15 18
-4 40 -3 52 3 11 6 29 11 40 11 13 0 27 12 37 31 15 30 15 34 -3 70 -19 40
-27 46 -38 28z"/>
<path d="M1508 2012 c-10 -2 -18 -7 -18 -11 0 -12 109 -41 155 -41 39 0 46 4
60 30 14 28 14 30 -2 30 -10 0 -29 -9 -43 -20 -27 -21 -50 -25 -65 -11 -15 13
-68 28 -87 23z"/>
<path d="M1500 1879 c0 -16 58 -39 98 -39 24 0 45 7 55 18 15 16 13 17 -26 14
-23 -2 -61 1 -84 6 -24 6 -43 6 -43 1z"/>
<path d="M1611 1731 c-23 -18 -23 -20 -8 -35 22 -23 60 -4 55 26 -4 29 -18 31
-47 9z"/>
<path d="M1041 1659 c-16 -36 -10 -45 17 -30 14 7 18 17 15 31 -8 32 -18 31
-32 -1z"/>
<path d="M1141 1671 c-10 -7 -10 -14 3 -37 26 -48 43 -65 58 -59 9 4 19 -3 26
-17 6 -14 11 -17 11 -8 1 8 -8 30 -19 48 -16 26 -25 32 -41 27 -18 -6 -19 -4
-10 13 13 24 -6 46 -28 33z"/>
<path d="M1960 1653 c0 -4 14 -19 31 -34 22 -19 47 -28 84 -32 33 -3 69 -16
96 -33 24 -15 61 -31 81 -34 45 -9 41 4 -5 19 -19 7 -51 20 -72 31 -22 11 -46
20 -55 20 -8 0 -32 11 -52 25 -41 28 -53 31 -42 13 4 -7 -3 -3 -15 10 -21 21
-51 30 -51 15z"/>
<path d="M1890 1625 c0 -8 6 -15 14 -15 8 0 17 -6 19 -12 4 -9 6 -8 6 3 1 16
-17 39 -31 39 -4 0 -8 -7 -8 -15z"/>
<path d="M1100 1600 c0 -33 11 -38 30 -15 10 12 10 18 0 30 -19 23 -30 18 -30
-15z"/>
<path d="M1058 1606 c-23 -17 -23 -26 2 -26 11 0 20 2 20 4 0 2 3 11 6 20 7
19 -5 20 -28 2z"/>
<path d="M1132 1560 c-16 -26 -5 -55 14 -39 11 9 14 8 14 -5 0 -9 -4 -16 -10
-16 -5 0 -10 -4 -10 -9 0 -5 9 -7 20 -4 15 4 18 11 13 37 -8 45 -25 61 -41 36z"/>
<path d="M2037 1573 c-15 -15 -5 -24 26 -22 17 2 42 -3 54 -9 32 -17 49 -16
33 3 -7 8 -23 15 -36 15 -13 0 -24 5 -24 10 0 11 -43 14 -53 3z"/>
<path d="M1940 1545 c0 -26 4 -28 34 -16 17 7 16 9 -8 24 -26 17 -26 17 -26
-8z"/>
<path d="M1887 1543 c-9 -9 -9 -43 1 -43 18 1 34 19 29 34 -7 17 -19 21 -30 9z"/>
<path d="M1724 1527 c-3 -9 -10 -17 -16 -17 -5 0 -24 -10 -41 -23 -18 -13 -49
-32 -69 -42 -21 -11 -38 -23 -38 -27 0 -5 -7 -8 -16 -8 -9 0 -14 -6 -12 -12 6
-17 48 -23 48 -8 0 7 7 9 15 6 10 -4 19 3 25 19 6 15 22 27 42 33 18 6 41 13
51 17 15 6 17 1 17 -49 0 -49 2 -56 20 -56 11 0 20 -4 20 -9 0 -15 -18 -23
-25 -11 -11 18 -20 10 -21 -20 -1 -27 1 -29 29 -26 19 2 33 10 38 22 5 15 8
11 14 -19 7 -34 10 -38 31 -33 17 5 24 2 24 -8 0 -8 -6 -17 -12 -19 -8 -3 -6
-6 5 -6 21 -1 23 32 2 49 -8 7 -12 16 -9 21 3 5 -8 20 -24 34 -37 31 -58 76
-67 140 -7 55 -21 78 -31 52z"/>
<path d="M1256 1521 c-3 -5 6 -12 19 -15 14 -4 31 -18 37 -31 6 -14 18 -25 26
-25 7 0 28 -10 44 -22 47 -33 29 -6 -33 51 -55 49 -81 61 -93 42z"/>
<path d="M1993 1523 c-7 -2 -13 -8 -13 -13 0 -12 40 -7 65 8 18 10 18 11 -10
11 -16 0 -36 -3 -42 -6z"/>
<path d="M2170 1523 c1 -5 17 -18 37 -31 29 -19 41 -21 59 -14 24 12 46 -2 37
-23 -2 -8 4 -18 15 -24 16 -8 22 -7 28 7 4 9 7 20 6 24 -1 4 5 5 13 2 17 -7
19 -20 5 -29 -5 -3 -10 -14 -10 -24 0 -18 34 -23 59 -7 11 7 13 4 9 -12 -5
-18 17 -53 29 -44 1 1 6 2 11 2 4 0 0 -4 -7 -9 -9 -6 -22 -6 -32 0 -20 10 -32
-11 -22 -38 4 -10 2 -14 -4 -10 -19 12 -38 -22 -25 -43 11 -18 7 -30 -10 -30
-5 0 -6 5 -3 10 3 6 2 10 -3 10 -5 0 -15 -12 -23 -27 -8 -16 -20 -33 -28 -39
-23 -18 -5 -35 24 -22 27 12 32 27 14 45 -7 7 -7 13 -1 17 6 4 17 -3 26 -15
20 -29 45 -19 39 15 -3 14 -9 26 -14 26 -5 0 -9 7 -9 15 0 10 10 15 30 15 34
0 37 6 13 32 -9 10 -12 18 -7 18 17 0 32 -15 36 -35 5 -19 6 -18 15 4 l10 25
11 -34 c7 -18 12 -41 12 -52 0 -10 7 -30 16 -43 17 -26 7 -34 -14 -13 -9 9
-12 6 -12 -15 0 -18 5 -27 16 -27 13 0 14 -3 5 -14 -9 -10 -9 -15 0 -18 14 -5
41 -68 29 -68 -6 0 -10 -13 -10 -30 0 -22 5 -30 18 -30 16 -1 16 -2 -1 -14
-10 -8 -14 -17 -8 -20 5 -3 12 -24 16 -46 4 -22 12 -40 18 -40 8 0 7 -3 -1 -9
-11 -6 -11 -20 -3 -66 6 -32 11 -90 11 -129 0 -53 3 -67 11 -56 11 15 5 -314
-6 -342 -3 -8 -2 -25 4 -39 8 -21 10 -22 16 -6 4 9 2 24 -5 32 -8 9 -8 15 -2
15 6 0 11 28 11 71 0 39 3 74 7 78 3 3 4 -46 3 -110 -3 -98 -7 -120 -23 -138
-16 -18 -17 -25 -8 -46 6 -14 19 -25 27 -25 11 0 15 -6 11 -18 -7 -20 38 -67
54 -57 17 10 11 26 -22 58 l-33 32 4 100 c2 55 4 118 5 140 1 66 -15 247 -25
287 -5 20 -12 103 -14 184 -3 81 -10 153 -16 160 -7 8 -6 13 3 16 10 4 6 19
-14 59 -17 33 -29 77 -32 114 -4 54 -37 152 -56 165 -4 3 -10 17 -14 32 -7 32
-75 104 -126 135 -29 18 -43 20 -77 14 -24 -5 -43 -5 -43 -1 0 4 -11 12 -25
18 -30 14 -35 15 -35 5z"/>
<path d="M1817 1506 c-4 -10 -5 -22 -1 -27 9 -15 44 -10 44 6 0 8 -6 15 -14
15 -8 0 -16 5 -18 12 -3 7 -7 5 -11 -6z"/>
<path d="M2073 1513 c-7 -2 -13 -14 -13 -25 0 -14 6 -19 23 -16 14 2 22 10 22
22 0 21 -12 28 -32 19z"/>
<path d="M663 1498 c-26 -12 -30 -28 -9 -28 25 0 46 12 46 26 0 16 -7 17 -37
2z"/>
<path d="M1207 1482 c-15 -15 -51 -34 -80 -43 -42 -12 -51 -19 -49 -35 2 -10
5 -38 9 -61 5 -37 9 -43 29 -43 19 0 24 5 24 25 0 18 -5 25 -20 25 -11 0 -20
5 -20 11 0 6 8 8 20 4 17 -5 19 -2 15 25 -3 26 -1 29 10 20 8 -6 15 -21 17
-33 2 -14 11 -23 26 -25 26 -4 27 4 6 46 -8 18 -13 36 -10 41 8 13 46 1 46
-14 0 -7 9 -23 20 -36 18 -22 19 -22 20 -5 0 11 -9 29 -20 41 -23 24 -18 52 8
57 15 3 14 6 -4 15 -17 10 -25 8 -47 -15z"/>
<path d="M2140 1490 c0 -15 7 -20 25 -20 17 0 25 6 25 17 0 9 -3 13 -6 10 -4
-3 -15 -2 -25 4 -16 8 -19 6 -19 -11z"/>
<path d="M910 1486 c0 -13 47 -32 57 -23 7 7 -27 37 -43 37 -8 0 -14 -6 -14
-14z"/>
<path d="M1887 1483 c-12 -11 -8 -51 6 -56 9 -4 9 -7 0 -14 -17 -12 -4 -56 14
-49 8 3 17 6 19 6 2 0 4 14 4 30 0 17 -5 30 -12 30 -9 0 -9 3 0 12 19 19 15
48 -6 48 -10 0 -22 -3 -25 -7z"/>
<path d="M742 1459 c2 -13 14 -29 26 -35 15 -7 20 -14 13 -18 -16 -10 5 -46
27 -46 14 0 15 -2 2 -10 -12 -8 -12 -11 2 -27 17 -18 18 -21 18 -48 0 -8 7
-15 16 -15 13 0 14 8 8 48 -3 26 -12 53 -18 61 -6 8 -10 16 -8 18 7 10 0 23
-13 23 -8 0 -18 14 -23 33 -6 22 -15 33 -31 35 -19 3 -22 0 -19 -19z"/>
<path d="M682 1455 c-17 -9 -20 -14 -10 -22 7 -5 23 -10 34 -11 17 0 21 4 17
19 -7 26 -14 28 -41 14z"/>
<path d="M2088 1456 c-25 -19 -22 -36 5 -36 30 0 36 6 30 31 -6 22 -12 23 -35
5z"/>
<path d="M580 1451 c0 -17 26 -30 48 -24 18 4 20 8 11 19 -13 15 -59 19 -59 5z"/>
<path d="M1810 1440 c0 -16 26 -40 44 -40 18 0 2 39 -19 48 -22 10 -25 9 -25
-8z"/>
<path d="M2168 1453 c-23 -6 -23 -20 1 -33 28 -14 31 -13 31 15 0 25 -1 26
-32 18z"/>
<path d="M2230 1445 c-7 -8 -11 -16 -9 -16 2 -1 16 -3 32 -5 30 -3 39 19 11
30 -21 8 -20 8 -34 -9z"/>
<path d="M920 1433 c0 -13 9 -18 30 -19 37 -1 39 13 4 26 -33 13 -34 13 -34
-7z"/>
<path d="M2008 1443 c-34 -5 -27 -33 8 -33 17 0 24 6 24 20 0 11 -1 19 -2 19
-2 -1 -15 -4 -30 -6z"/>
<path d="M1356 1409 c16 -17 16 -22 4 -31 -13 -8 -12 -9 2 -5 20 7 38 -13 42
-47 1 -14 6 -29 10 -34 5 -4 5 14 2 41 -5 33 -3 46 5 45 6 -2 14 3 16 10 4 10
-25 17 -43 10 -3 -2 -10 5 -15 15 -6 9 -17 17 -26 17 -14 0 -14 -3 3 -21z"/>
<path d="M1666 1412 c-6 -10 4 -81 13 -86 7 -5 5 83 -2 90 -3 3 -8 1 -11 -4z"/>
<path d="M625 1400 c-6 -10 41 -37 50 -28 3 3 3 13 -1 22 -7 18 -39 22 -49 6z"/>
<path d="M696 1396 c6 -17 42 -32 52 -22 8 8 -8 22 -35 31 -18 5 -22 3 -17 -9z"/>
<path d="M2093 1403 c-7 -2 -13 -14 -13 -25 0 -14 5 -18 16 -14 9 3 20 6 25 6
5 0 9 9 9 20 0 19 -12 24 -37 13z"/>
<path d="M2160 1389 c0 -12 3 -19 6 -16 4 3 15 2 26 -4 17 -9 19 -8 16 8 -2
10 -8 18 -13 18 -6 0 -16 4 -22 8 -9 6 -13 1 -13 -14z"/>
<path d="M2230 1385 c0 -21 5 -25 30 -25 23 0 30 4 30 20 0 11 -4 20 -10 20
-5 0 -10 -5 -10 -11 0 -6 -7 -3 -16 5 -21 21 -24 20 -24 -9z"/>
<path d="M882 1333 c0 -68 9 -93 33 -93 8 0 11 8 8 20 -3 11 -12 20 -19 20 -8
0 -14 5 -14 11 0 6 7 9 15 5 19 -7 19 4 -1 32 -8 12 -11 22 -6 22 11 0 4 38
-8 45 -5 3 -8 -25 -8 -62z"/>
<path d="M2008 1393 c-10 -2 -18 -12 -18 -22 0 -14 6 -17 30 -13 21 3 30 10
30 23 0 19 -8 21 -42 12z"/>
<path d="M1631 1378 c-1 -9 -5 -18 -11 -20 -5 -1 -13 -18 -16 -37 -6 -31 -5
-33 15 -26 13 4 21 2 21 -5 0 -7 -8 -14 -19 -17 -15 -4 -17 -11 -12 -36 4 -18
6 -42 5 -54 -1 -13 2 -23 6 -23 10 0 30 97 29 143 -1 43 -16 106 -18 75z"/>
<path d="M1291 1365 c0 -11 6 -29 14 -39 8 -11 15 -35 15 -53 0 -18 4 -33 10
-33 5 0 7 7 4 15 -4 8 -1 15 5 15 6 0 11 16 11 35 0 29 -4 35 -20 35 -12 0
-24 10 -30 23 -8 20 -9 20 -9 2z"/>
<path d="M2335 1344 c-18 -43 -18 -44 -5 -44 5 0 13 12 16 26 5 19 11 24 26
21 14 -4 18 -1 16 11 -6 33 -36 25 -53 -14z"/>
<path d="M1430 1356 c0 -30 20 -66 37 -66 16 0 16 -1 -1 -13 -14 -10 -15 -17
-7 -41 6 -15 9 -31 6 -36 -3 -5 -2 -11 3 -14 7 -4 42 85 42 107 0 8 -66 77
-74 77 -3 0 -6 -6 -6 -14z"/>
<path d="M1544 1346 c-7 -31 4 -55 17 -35 12 19 11 59 -1 59 -5 0 -12 -11 -16
-24z"/>
<path d="M480 1350 c0 -12 40 -33 48 -25 4 4 -2 13 -12 21 -23 16 -36 18 -36
4z"/>
<path d="M646 1345 c5 -12 44 -28 51 -21 10 10 -11 31 -31 32 -16 1 -23 -3
-20 -11z"/>
<path d="M724 1343 c3 -8 6 -17 6 -19 0 -2 11 -4 25 -4 32 0 23 26 -11 33 -19
3 -24 1 -20 -10z"/>
<path d="M1037 1346 c-34 -13 -32 -42 3 -38 30 3 32 6 28 29 -3 16 -7 17 -31
9z"/>
<path d="M1903 1353 c-7 -2 -13 -16 -13 -30 0 -20 4 -24 23 -21 16 2 23 11 25
31 3 27 -6 32 -35 20z"/>
<path d="M2160 1330 c0 -28 3 -30 30 -28 17 1 30 5 30 8 0 11 -16 28 -37 39
-22 11 -23 10 -23 -19z"/>
<path d="M2087 1343 c-4 -3 -7 -15 -7 -26 0 -15 5 -18 23 -13 12 3 25 6 30 6
4 0 7 9 7 20 0 14 -7 20 -23 20 -13 0 -27 -3 -30 -7z"/>
<path d="M2263 1343 c-15 -3 -23 -12 -23 -24 0 -14 7 -19 30 -19 25 0 30 4 30
25 0 14 -3 24 -7 24 -5 -1 -18 -4 -30 -6z"/>
<path d="M947 1333 c-14 -14 -6 -40 16 -51 17 -8 18 -11 5 -11 -26 -1 -24 -41
1 -41 23 0 36 -16 22 -25 -6 -3 -8 -12 -4 -20 3 -8 2 -15 -1 -15 -4 0 -11 10
-16 23 l-9 22 0 -22 c-1 -13 7 -24 19 -28 26 -8 26 -29 1 -22 -15 3 -20 -2
-24 -22 -6 -31 -8 -28 23 -33 23 -3 25 1 28 37 2 22 -2 79 -9 128 -10 70 -15
87 -29 87 -9 0 -20 -3 -23 -7z"/>
<path d="M1170 1313 c0 -19 6 -23 29 -23 24 0 28 3 24 23 -3 15 -11 22 -29 22
-18 0 -24 -5 -24 -22z"/>
<path d="M1990 1331 c0 -22 13 -39 25 -35 8 3 11 13 7 22 -5 15 -4 15 11 3 15
-12 17 -11 17 3 0 11 -9 16 -30 16 -16 0 -30 -4 -30 -9z"/>
<path d="M558 1308 c12 -12 24 -19 28 -15 10 10 -16 37 -34 37 -13 0 -12 -4 6
-22z"/>
<path d="M1372 1285 c3 -63 58 -105 58 -44 0 26 -3 29 -20 24 -15 -5 -20 -2
-20 12 0 10 -5 25 -10 33 -8 11 -10 5 -8 -25z"/>
<path d="M2345 1299 c-4 -11 -13 -18 -20 -15 -14 5 -25 -14 -25 -45 0 -30 13
-22 40 24 33 55 33 57 22 57 -6 0 -14 -9 -17 -21z"/>
<path d="M466 1294 c-11 -29 -6 -44 14 -44 11 0 20 5 20 10 0 6 -7 10 -16 10
-8 0 -13 4 -10 9 3 5 15 7 26 4 24 -6 27 12 4 21 -24 9 -31 7 -38 -10z"/>
<path d="M418 1292 c-10 -2 -18 -7 -18 -12 0 -5 -3 -15 -6 -24 -4 -11 0 -16
15 -16 14 0 23 8 27 25 7 30 5 33 -18 27z"/>
<path d="M534 1284 c3 -9 6 -19 6 -22 0 -4 11 -8 25 -8 32 -2 32 9 0 30 -31
20 -39 20 -31 0z"/>
<path d="M740 1293 c0 -4 4 -14 9 -22 10 -16 54 -5 48 12 -4 14 -57 23 -57 10z"/>
<path d="M1918 1286 c-19 -14 -25 -56 -9 -56 27 0 41 15 41 41 0 32 -6 35 -32
15z"/>
<path d="M1034 1282 c-17 -11 -2 -37 22 -39 17 -2 20 2 16 22 -4 25 -18 31
-38 17z"/>
<path d="M1244 1272 c11 -33 26 -158 26 -213 0 -54 1 -56 25 -56 22 0 25 4 25
33 0 26 -5 34 -22 37 l-23 4 21 8 c25 8 22 41 -5 63 -12 10 -13 15 -3 18 6 3
12 12 12 20 0 9 -4 12 -10 9 -6 -3 -7 1 -4 9 3 9 1 16 -5 16 -6 0 -11 7 -11
15 0 8 5 15 10 15 6 0 10 8 10 18 0 12 -9 18 -26 20 -20 1 -24 -2 -20 -16z"/>
<path d="M1536 1276 c3 -7 -2 -16 -10 -19 -30 -12 -17 -29 17 -22 21 4 27 3
19 -3 -11 -8 -11 -10 1 -15 21 -8 24 -2 19 33 -4 28 -5 29 -19 13 -14 -17 -14
-17 -10 5 3 14 0 22 -9 22 -7 0 -11 -6 -8 -14z"/>
<path d="M2090 1271 c0 -14 7 -19 25 -17 35 2 35 36 0 36 -18 0 -25 -5 -25
-19z"/>
<path d="M1094 1264 c3 -9 6 -20 6 -25 0 -5 11 -9 25 -9 20 0 25 5 25 25 0 21
-5 25 -31 25 -24 0 -30 -3 -25 -16z"/>
<path d="M1720 1271 c0 -26 13 -41 25 -31 9 8 15 8 20 0 11 -18 25 -11 25 15
0 27 -9 32 -27 14 -8 -8 -13 -8 -17 0 -9 13 -26 15 -26 2z"/>
<path d="M2000 1263 c0 -10 4 -24 9 -32 12 -19 51 3 51 29 0 16 -7 20 -30 20
-22 0 -30 -5 -30 -17z"/>
<path d="M2170 1255 c0 -20 5 -25 25 -25 20 0 25 5 25 25 0 20 -5 25 -25 25
-20 0 -25 -5 -25 -25z"/>
<path d="M2263 1273 c-18 -7 -16 -43 2 -43 8 0 15 4 15 9 0 5 3 16 6 25 6 16
0 19 -23 9z"/>
<path d="M606 1261 c-7 -11 11 -26 42 -35 13 -5 22 -3 22 3 0 14 -58 43 -64
32z"/>
<path d="M1178 1244 c6 -33 52 -35 52 -1 0 17 -6 22 -29 24 -25 2 -27 -1 -23
-23z"/>
<path d="M777 1243 c-13 -3 -16 -10 -11 -26 8 -27 6 -24 24 -29 17 -3 20 1 20
37 0 25 -1 26 -33 18z"/>
<path d="M840 1168 c0 -45 2 -79 4 -77 10 11 16 159 6 159 -6 0 -10 -32 -10
-82z"/>
<path d="M398 1219 c-16 -9 -26 -39 -14 -39 2 0 11 -3 19 -6 10 -4 16 4 19 25
5 34 2 36 -24 20z"/>
<path d="M450 1216 c0 -8 -3 -22 -7 -32 -4 -12 -2 -15 8 -12 8 3 13 10 12 16
-1 5 7 8 17 5 15 -4 20 0 20 16 0 16 -6 21 -25 21 -15 0 -25 -6 -25 -14z"/>
<path d="M520 1206 c0 -23 16 -36 46 -36 19 0 18 46 -2 54 -30 12 -44 6 -44
-18z"/>
<path d="M880 1206 c0 -14 4 -26 9 -26 5 0 16 -3 25 -6 12 -5 16 0 16 20 0 14
-4 26 -9 26 -5 0 -16 3 -25 6 -12 5 -16 0 -16 -20z"/>
<path d="M1918 1216 c-17 -13 -24 -46 -13 -58 4 -3 16 -1 28 5 18 8 22 17 19
39 -5 31 -9 33 -34 14z"/>
<path d="M1981 1198 c-1 -21 3 -38 8 -38 17 0 19 15 6 45 l-13 30 -1 -37z"/>
<path d="M2090 1216 c0 -7 9 -25 21 -40 11 -14 17 -26 12 -26 -5 0 -7 -16 -5
-35 2 -19 9 -35 14 -35 7 0 6 -5 -1 -14 -6 -7 -9 -20 -7 -27 16 -50 16 -69 1
-69 -18 0 -30 -27 -39 -92 -6 -39 -4 -48 7 -48 8 0 20 13 25 29 9 24 7 31 -5
36 -12 4 -13 9 -5 17 8 8 15 8 26 -1 10 -9 16 -9 21 -1 4 6 4 14 1 17 -3 3 -1
14 4 24 7 12 6 19 -2 21 -8 3 -8 9 1 25 13 26 15 60 2 65 -5 2 -11 34 -14 72
-3 52 -8 72 -22 82 -24 18 -35 18 -35 0z"/>
<path d="M2444 1206 c-3 -13 -16 -28 -30 -35 -13 -6 -24 -15 -24 -20 0 -9 -37
-24 -56 -22 -6 1 -9 -11 -6 -28 6 -44 -14 -45 -27 -2 -10 33 -14 38 -36 33
-20 -3 -25 -10 -25 -33 0 -19 5 -29 15 -29 21 0 19 -12 -5 -33 -20 -17 -28
-57 -11 -57 5 0 3 -13 -5 -30 -9 -17 -13 -39 -9 -51 4 -12 3 -24 -2 -28 -16
-10 -25 -62 -11 -59 9 2 14 -13 16 -44 2 -31 -1 -48 -8 -48 -6 0 -9 4 -6 9 4
5 0 12 -6 15 -10 5 -10 7 0 12 17 8 15 34 -3 34 -8 0 -17 -14 -21 -37 -4 -21
-11 -46 -16 -55 -5 -10 -5 -18 0 -18 5 0 14 10 20 23 6 12 11 17 11 10 1 -6
10 -9 20 -6 16 4 21 18 27 76 4 40 8 81 8 91 1 20 26 36 26 17 0 -6 11 -11 25
-11 18 0 25 5 25 19 0 11 5 23 10 26 6 3 10 24 10 46 0 35 -3 39 -25 39 -21 0
-25 -5 -25 -30 0 -20 5 -30 15 -30 20 0 19 -7 -4 -31 -10 -11 -22 -16 -25 -11
-3 5 -18 7 -33 5 l-28 -4 27 15 c23 14 26 21 21 49 -4 28 -1 36 21 51 15 9 31
14 36 11 6 -4 10 7 10 24 0 25 4 30 20 28 22 -4 40 -17 22 -17 -7 0 -12 -5
-12 -11 0 -6 9 -8 23 -3 29 9 30 9 23 32 -5 14 -13 18 -33 14 -18 -3 -24 -1
-19 7 4 6 13 11 20 11 8 0 16 10 20 22 4 18 8 20 18 10 22 -22 48 -15 48 14 0
17 -4 23 -12 18 -7 -4 -5 2 5 13 9 11 14 23 10 26 -12 13 -23 7 -29 -17z
m-144 -145 c0 -10 -8 -25 -17 -32 -15 -12 -16 -12 -10 4 4 10 7 28 7 38 0 11
5 17 10 14 6 -3 10 -14 10 -24z"/>
<path d="M606 1204 c-10 -26 -7 -32 24 -43 28 -9 30 -8 30 15 0 14 -4 22 -10
19 -5 -3 -10 -2 -10 3 0 17 -28 21 -34 6z"/>
<path d="M1030 1196 c0 -22 16 -36 41 -36 5 0 9 14 9 30 0 25 -4 30 -25 30
-20 0 -25 -5 -25 -24z"/>
<path d="M1320 1203 c0 -25 11 -39 38 -48 22 -6 23 -4 20 27 -2 28 -7 34 -30
36 -22 3 -28 -1 -28 -15z"/>
<path d="M1680 1185 c0 -26 3 -33 15 -29 9 4 15 19 15 35 0 19 -5 29 -15 29
-10 0 -15 -11 -15 -35z"/>
<path d="M2035 1210 c-9 -15 6 -60 20 -60 19 0 24 11 18 43 -5 26 -26 36 -38
17z"/>
<path d="M1100 1180 c0 -32 2 -33 38 -24 15 4 22 14 22 30 0 20 -5 24 -30 24
-27 0 -30 -3 -30 -30z"/>
<path d="M1500 1192 c0 -10 -6 -24 -12 -31 -11 -10 -9 -12 6 -9 20 3 36 58 16
58 -5 0 -10 -8 -10 -18z"/>
<path d="M1758 1202 c-29 -3 -32 -9 -22 -36 8 -20 43 -21 50 -2 10 27 0 41
-28 38z"/>
<path d="M1820 1185 c0 -21 5 -25 29 -25 25 0 28 3 23 25 -3 18 -11 25 -28 25
-19 0 -24 -5 -24 -25z"/>
<path d="M2172 1180 c2 -17 10 -26 26 -28 19 -3 22 1 22 27 0 27 -3 31 -25 29
-21 -2 -25 -7 -23 -28z"/>
<path d="M2249 1208 c0 -2 -2 -15 -4 -30 -3 -22 1 -28 15 -28 9 0 20 8 24 18
3 9 9 23 12 30 4 8 -3 12 -20 12 -14 0 -26 -1 -27 -2z"/>
<path d="M1182 1178 c2 -17 11 -24 32 -26 23 -3 28 0 22 13 -3 9 -6 21 -6 26
0 5 -12 9 -26 9 -21 0 -25 -4 -22 -22z"/>
<path d="M1400 1169 c0 -23 3 -26 25 -21 15 2 25 0 25 -7 0 -6 -11 -11 -25
-11 -22 0 -25 -4 -25 -35 0 -28 4 -35 20 -35 11 0 20 -4 20 -10 0 -5 -9 -10
-20 -10 -24 0 -25 -15 -6 -52 9 -16 10 -28 5 -28 -6 0 -8 -4 -4 -10 12 -19 22
-145 14 -179 -5 -24 -4 -38 4 -44 9 -7 9 -10 0 -14 -17 -6 -16 -48 1 -62 11
-10 14 29 18 251 3 145 3 269 0 276 -2 6 -9 12 -14 12 -6 0 -5 -6 2 -15 10
-12 10 -15 -3 -15 -9 0 -21 8 -26 18 -9 15 -10 13 -11 -9z"/>
<path d="M1570 1165 c0 -16 6 -25 16 -25 11 0 14 5 10 16 -3 9 -6 20 -6 25 0
5 -4 9 -10 9 -5 0 -10 -11 -10 -25z"/>
<path d="M785 1138 c9 -40 13 -48 26 -48 6 0 9 17 7 37 -2 27 -8 39 -21 41
-17 3 -18 -1 -12 -30z"/>
<path d="M382 1139 c2 -16 10 -25 27 -27 29 -4 25 15 -8 36 -22 15 -23 15 -19
-9z"/>
<path d="M515 1139 c-8 -23 0 -34 31 -43 18 -5 23 -2 27 21 3 15 5 28 4 29 -1
1 -14 4 -29 8 -21 5 -28 2 -33 -15z"/>
<path d="M870 1130 c0 -16 3 -30 8 -30 4 0 17 -3 30 -6 19 -6 22 -3 22 24 0
22 -6 31 -22 36 -36 9 -38 8 -38 -24z"/>
<path d="M600 1119 c0 -16 3 -29 8 -29 4 0 17 -3 30 -7 21 -5 23 -3 20 22 -2
21 -10 31 -30 36 -26 7 -28 5 -28 -22z"/>
<path d="M1030 1121 c0 -17 4 -31 9 -31 5 0 16 -3 25 -6 13 -5 16 1 16 25 0
17 -4 31 -9 31 -5 0 -16 3 -25 6 -13 5 -16 -1 -16 -25z"/>
<path d="M1933 1143 c-17 -3 -23 -11 -23 -31 0 -22 5 -27 25 -27 22 0 25 5 25
33 0 17 -1 31 -2 31 -2 -1 -13 -4 -25 -6z"/>
<path d="M1987 1144 c-9 -9 3 -57 17 -67 8 -6 7 -10 -1 -14 -19 -7 -16 -60 3
-67 9 -3 20 -6 25 -6 12 0 12 67 -1 75 -5 3 -7 11 -4 19 6 15 -12 66 -24 66
-5 0 -12 -3 -15 -6z"/>
<path d="M1117 1133 c-4 -3 -7 -17 -7 -30 0 -18 5 -23 25 -23 21 0 25 5 25 30
0 22 -5 30 -18 30 -10 0 -22 -3 -25 -7z"/>
<path d="M1330 1129 c0 -4 4 -19 10 -33 13 -36 40 -34 40 3 0 23 -5 30 -25 33
-14 3 -25 2 -25 -3z"/>
<path d="M1501 1135 c3 -21 -1 -36 -10 -31 -5 3 -11 -3 -14 -14 -3 -11 -1 -18
3 -15 5 3 10 0 12 -7 5 -15 37 -3 45 18 3 9 -3 24 -16 37 -12 12 -21 18 -20
12z"/>
<path d="M1620 1129 c0 -19 21 -59 30 -59 5 0 10 15 10 34 0 29 -4 34 -20 33
-11 -1 -20 -5 -20 -8z"/>
<path d="M1680 1070 c0 -38 2 -70 4 -70 2 0 11 -3 20 -6 12 -5 16 1 16 24 0
17 -6 32 -15 36 -8 3 -15 10 -15 17 0 6 7 9 15 5 9 -3 15 0 15 9 0 8 -4 15 -9
15 -5 0 -7 9 -4 20 4 14 0 20 -11 20 -13 0 -16 -12 -16 -70z"/>
<path d="M1768 1132 c-24 -3 -28 -8 -28 -33 0 -27 2 -29 28 -23 35 9 34 8 30
36 -2 19 -8 22 -30 20z"/>
<path d="M1824 1124 c3 -9 6 -22 6 -30 0 -9 11 -14 31 -14 24 0 30 3 25 16 -3
9 -6 22 -6 30 0 9 -11 14 -31 14 -24 0 -30 -3 -25 -16z"/>
<path d="M2063 1112 c1 -19 8 -29 20 -29 17 -2 22 13 11 41 -11 28 -33 19 -31
-12z"/>
<path d="M444 1114 c3 -9 6 -20 6 -25 0 -5 9 -9 20 -9 11 0 20 -7 20 -15 0 -8
5 -15 10 -15 21 0 9 40 -19 59 -35 25 -45 26 -37 5z"/>
<path d="M1190 1105 c0 -14 4 -25 9 -25 5 0 16 -3 25 -6 13 -5 16 1 16 25 0
26 -4 31 -25 31 -20 0 -25 -5 -25 -25z"/>
<path d="M2170 1120 c0 -5 7 -7 16 -3 12 4 15 0 12 -17 -1 -13 3 -25 10 -27 8
-3 12 6 12 26 0 26 -4 31 -25 31 -14 0 -25 -4 -25 -10z"/>
<path d="M680 1090 c0 -19 5 -30 14 -30 8 0 21 -3 30 -6 25 -10 20 32 -6 50
-32 22 -38 20 -38 -14z"/>
<path d="M1590 1120 c-7 -17 -7 -60 0 -60 14 0 17 13 9 40 -4 14 -8 23 -9 20z"/>
<path d="M2443 1082 c2 -21 0 -47 -5 -56 -13 -22 4 -43 19 -24 12 17 4 118 -9
118 -7 0 -9 -15 -5 -38z"/>
<path d="M2480 1083 c0 -27 3 -31 18 -26 14 6 15 4 5 -8 -9 -11 -8 -18 3 -33
11 -16 14 -17 14 -4 0 9 3 23 6 31 3 8 -6 27 -20 43 l-25 29 -1 -32z"/>
<path d="M390 1056 c0 -29 3 -33 20 -29 26 7 29 13 19 41 -13 35 -39 28 -39
-12z"/>
<path d="M532 1065 c8 -18 19 -25 40 -25 17 0 27 4 23 10 -8 14 7 12 25 -3 8
-7 16 -27 17 -45 1 -41 4 -44 40 -40 l28 3 -30 30 c-16 17 -28 38 -27 48 3 17
0 18 -48 22 -14 1 -35 7 -47 13 -31 17 -34 15 -21 -13z"/>
<path d="M860 1040 c0 -19 5 -30 14 -30 8 0 21 -3 30 -6 13 -5 16 1 16 30 0
33 -2 36 -30 36 -27 0 -30 -3 -30 -30z"/>
<path d="M950 1048 c0 -9 -3 -23 -6 -32 -4 -11 1 -15 24 -14 26 1 31 5 34 33
3 29 1 32 -24 31 -19 -1 -28 -6 -28 -18z"/>
<path d="M1030 1033 c0 -30 3 -33 30 -33 26 0 30 3 30 29 0 24 -5 29 -30 33
-28 4 -30 3 -30 -29z"/>
<path d="M1920 1034 c0 -30 3 -34 26 -34 23 0 25 3 22 33 -2 25 -8 32 -25 33
-20 1 -23 -4 -23 -32z"/>
<path d="M1110 1030 c0 -27 3 -30 30 -30 27 0 30 3 30 30 0 27 -3 30 -30 30
-27 0 -30 -3 -30 -30z"/>
<path d="M1190 1031 c0 -20 5 -31 14 -31 8 0 22 -3 31 -6 13 -5 15 -2 9 22 -8
35 -4 30 -31 38 -20 7 -23 4 -23 -23z"/>
<path d="M1346 1033 c10 -39 28 -48 32 -16 3 23 -10 42 -31 43 -4 0 -4 -12 -1
-27z"/>
<path d="M1752 1051 c-6 -3 -8 -18 -5 -32 4 -22 9 -25 34 -21 26 4 30 8 27 31
-2 19 -9 26 -25 27 -12 1 -26 -2 -31 -5z"/>
<path d="M1830 1037 c0 -31 4 -34 38 -29 24 3 28 8 24 28 -3 19 -11 24 -33 24
-24 0 -29 -4 -29 -23z"/>
<path d="M2090 1052 c0 -6 -7 -9 -16 -5 -13 5 -15 2 -8 -18 4 -13 7 -44 6 -69
-1 -42 0 -43 9 -15 30 93 31 97 20 108 -8 8 -11 8 -11 -1z"/>
<path d="M680 1028 c0 -13 9 -29 20 -36 11 -7 20 -19 20 -27 0 -8 3 -15 8 -15
4 0 7 16 6 36 -1 29 -7 40 -28 51 -24 13 -26 12 -26 -9z"/>
<path d="M1587 1043 c-13 -13 -7 -53 8 -53 10 0 15 10 15 30 0 29 -9 38 -23
23z"/>
<path d="M1630 1020 c0 -32 23 -42 34 -14 11 29 6 44 -14 44 -16 0 -20 -7 -20
-30z"/>
<path d="M2374 1025 c-4 -8 -3 -27 1 -43 l7 -27 19 24 c25 31 25 61 -1 61 -11
0 -23 -7 -26 -15z"/>
<path d="M483 1022 c-35 -5 -26 -34 15 -46 17 -6 22 -3 22 11 0 27 -13 39 -37
35z"/>
<path d="M580 1020 c-10 -7 -11 -10 -2 -10 6 0 12 -5 12 -11 0 -6 -9 -9 -20
-6 -13 3 -20 0 -20 -9 0 -9 11 -14 30 -14 28 0 30 2 24 28 -9 34 -7 33 -24 22z"/>
<path d="M350 994 c0 -17 12 -25 62 -42 40 -14 64 -18 68 -11 4 6 12 4 20 -6
7 -8 20 -15 30 -15 9 0 39 -11 66 -25 57 -29 74 -36 74 -30 0 9 -61 46 -82 50
-13 3 -28 12 -35 21 -6 9 -29 17 -50 18 -53 4 -126 27 -140 46 -11 13 -12 12
-13 -6z"/>
<path d="M2458 986 c-23 -17 -23 -26 1 -26 11 0 21 -6 24 -12 2 -7 4 2 3 19
-1 37 -3 38 -28 19z"/>
<path d="M883 983 c-13 -2 -23 -9 -23 -14 0 -6 4 -8 9 -4 15 8 25 -15 12 -28
-8 -8 -16 -9 -29 -1 -16 10 -17 7 -16 -30 0 -22 3 -48 7 -56 3 -8 8 -37 12
-64 7 -49 20 -52 28 -6 4 21 4 20 6 -7 1 -44 21 -42 21 2 0 31 -3 35 -25 35
-14 0 -25 5 -25 10 0 6 11 10 25 10 22 0 25 4 25 36 0 24 -4 34 -12 31 -7 -2
-12 -13 -10 -25 4 -25 -15 -39 -21 -15 -3 10 -8 28 -12 41 -6 19 -3 22 24 22
29 0 31 3 31 35 0 19 -1 34 -2 34 -2 -1 -13 -4 -25 -6z"/>
<path d="M1840 953 c0 -30 3 -33 30 -33 27 0 30 3 30 33 0 29 -3 32 -30 32
-27 0 -30 -3 -30 -32z"/>
<path d="M940 950 c0 -27 3 -30 30 -30 27 0 30 3 30 30 0 27 -3 30 -30 30 -27
0 -30 -3 -30 -30z"/>
<path d="M1028 950 c-4 -27 -2 -30 23 -30 19 0 28 6 33 23 9 35 8 37 -23 37
-24 0 -29 -5 -33 -30z"/>
<path d="M1110 944 c0 -29 3 -35 16 -30 9 3 22 6 30 6 9 0 14 11 14 30 0 27
-3 30 -30 30 -28 0 -30 -3 -30 -36z"/>
<path d="M1190 951 c0 -28 3 -31 30 -31 25 0 30 4 30 25 0 15 -6 25 -14 25 -8
0 -21 3 -30 6 -13 5 -16 -1 -16 -25z"/>
<path d="M1270 950 c0 -25 4 -30 25 -30 21 0 25 5 25 30 0 25 -4 30 -25 30
-21 0 -25 -5 -25 -30z"/>
<path d="M1350 945 c0 -30 3 -35 24 -35 20 0 23 4 18 28 -5 26 -18 42 -34 42
-5 0 -8 -16 -8 -35z"/>
<path d="M1680 952 c0 -27 14 -42 41 -42 5 0 9 14 9 30 0 17 -4 30 -9 30 -5 0
-16 3 -25 6 -12 5 -16 -1 -16 -24z"/>
<path d="M1767 973 c-13 -3 -16 -11 -11 -31 4 -15 7 -28 8 -29 1 -1 14 1 29 4
19 4 26 10 23 20 -3 8 -6 21 -6 29 0 14 -10 16 -43 7z"/>
<path d="M1920 950 c0 -16 4 -30 9 -30 5 0 16 -3 25 -6 13 -5 16 1 16 30 0 32
-3 36 -25 36 -21 0 -25 -5 -25 -30z"/>
<path d="M2008 973 c-26 -7 -24 -59 1 -66 11 -3 22 -2 25 1 9 8 7 72 -1 71 -5
-1 -16 -3 -25 -6z"/>
<path d="M2500 956 c0 -14 5 -28 10 -31 6 -4 10 7 10 24 0 17 -4 31 -10 31 -5
0 -10 -11 -10 -24z"/>
<path d="M1470 960 c0 -5 9 -10 21 -10 12 0 19 -5 16 -12 -2 -7 -11 -12 -21
-10 -9 2 -16 -1 -16 -6 0 -6 14 -12 30 -14 28 -4 30 -3 30 29 0 30 -3 33 -30
33 -16 0 -30 -4 -30 -10z"/>
<path d="M1550 939 c0 -29 3 -34 24 -34 19 0 25 6 29 28 2 17 -1 27 -9 27 -7
0 -19 3 -28 6 -13 5 -16 -1 -16 -27z"/>
<path d="M1633 963 c-7 -2 -13 -16 -13 -29 0 -17 6 -24 20 -24 16 0 20 7 20
30 0 30 -4 33 -27 23z"/>
<path d="M2384 940 c-12 -5 -24 -20 -26 -34 -5 -23 -2 -26 23 -26 26 0 29 3
29 35 0 19 -1 35 -2 34 -2 0 -13 -4 -24 -9z"/>
<path d="M390 933 c0 -6 10 -21 23 -34 12 -14 21 -33 19 -43 -2 -10 0 -22 5
-27 13 -13 53 1 53 18 0 13 3 13 15 3 8 -7 15 -18 15 -24 0 -13 60 -39 69 -30
3 3 -8 18 -25 33 -32 31 -94 66 -94 55 0 -4 -10 1 -22 12 -41 36 -58 47 -58
37z"/>
<path d="M2437 928 c4 -7 8 -17 9 -23 0 -5 2 -16 2 -22 3 -22 29 -14 36 9 6
26 -5 40 -34 45 -15 2 -19 -1 -13 -9z"/>
<path d="M675 909 c6 -30 78 -115 83 -99 3 8 -6 23 -19 34 -13 12 -30 35 -37
51 l-14 30 26 -24 c25 -24 32 -19 20 13 -4 9 -18 16 -34 16 -24 0 -28 -4 -25
-21z"/>
<path d="M761 897 c-1 -41 38 -124 50 -106 14 22 11 46 -7 53 -9 4 -14 13 -10
21 3 8 1 15 -5 15 -5 0 -14 10 -19 23 -8 21 -9 21 -9 -6z"/>
<path d="M1027 903 c-4 -3 -7 -21 -7 -40 0 -30 3 -33 30 -33 28 0 30 3 30 36
0 19 -4 33 -9 29 -5 -3 -12 -1 -16 5 -7 12 -19 13 -28 3z"/>
<path d="M2500 899 c0 -5 7 -9 15 -9 21 0 19 -4 -15 -39 -46 -46 -81 -71 -91
-65 -10 6 -36 -19 -61 -58 -10 -14 -31 -29 -48 -33 -29 -6 -35 -18 -33 -72 1
-7 -3 -11 -7 -8 -4 3 -22 -2 -39 -11 -25 -13 -31 -21 -31 -49 0 -24 -7 -37
-25 -49 -19 -12 -25 -25 -24 -49 1 -21 3 -25 6 -12 7 29 23 45 44 45 15 0 19
8 19 38 0 43 23 72 58 72 18 0 22 6 22 33 0 25 6 36 31 50 17 9 34 15 39 12 4
-3 10 6 14 18 3 15 20 30 45 41 21 10 44 28 51 41 15 27 56 49 66 34 3 -5 -6
-21 -21 -35 -23 -21 -24 -26 -12 -39 17 -16 57 -9 57 10 0 7 -8 16 -17 19 -10
4 -13 10 -8 14 6 4 10 30 10 58 0 47 -2 52 -22 52 -13 0 -23 -4 -23 -9z"/>
<path d="M938 864 c-4 -32 -2 -34 24 -34 23 0 28 4 28 25 0 14 1 28 3 31 1 4
-10 8 -24 10 -24 2 -27 -2 -31 -32z"/>
<path d="M1129 893 c-10 -2 -19 -17 -21 -34 -4 -26 -2 -29 24 -29 25 0 28 3
28 35 0 19 -3 34 -7 34 -5 -1 -15 -3 -24 -6z"/>
<path d="M1190 863 c0 -30 3 -33 30 -33 28 0 30 3 30 35 0 32 -2 34 -30 32
-27 -2 -30 -6 -30 -34z"/>
<path d="M1270 865 c0 -31 3 -35 25 -35 22 0 25 4 25 35 0 31 -3 35 -25 35
-22 0 -25 -4 -25 -35z"/>
<path d="M1765 890 c-3 -5 -3 -20 0 -33 10 -38 49 -29 53 11 3 28 0 32 -22 32
-14 0 -27 -4 -31 -10z"/>
<path d="M1840 870 c0 -16 3 -30 8 -30 4 0 17 -3 30 -6 20 -6 22 -3 22 30 0
33 -2 36 -30 36 -27 0 -30 -3 -30 -30z"/>
<path d="M1920 866 c0 -31 3 -36 23 -36 18 0 23 6 25 30 1 17 -2 30 -7 30 -5
0 -16 3 -25 6 -13 5 -16 -1 -16 -30z"/>
<path d="M552 878 c3 -7 24 -19 49 -28 24 -8 63 -29 86 -46 49 -36 113 -116
113 -142 0 -10 6 -26 13 -37 13 -17 14 -17 19 2 5 20 -12 64 -42 111 -41 64
-254 189 -238 140z"/>
<path d="M1350 860 c0 -26 4 -30 28 -30 26 0 28 3 24 30 -3 24 -9 30 -28 30
-20 0 -24 -5 -24 -30z"/>
<path d="M1632 883 c-16 -3 -22 -9 -18 -20 3 -8 6 -21 6 -29 0 -8 9 -14 20
-14 11 0 20 -4 20 -10 0 -5 -9 -10 -20 -10 -17 0 -19 -5 -13 -32 3 -18 10 -36
16 -39 5 -4 5 -9 -1 -13 -6 -4 -11 -39 -11 -80 0 -72 1 -73 24 -68 21 4 23 8
18 36 -3 17 -10 34 -16 37 -5 4 -5 9 1 13 12 7 16 237 4 235 -4 -1 -17 -4 -30
-6z"/>
<path d="M1716 864 c6 -23 4 -26 -10 -21 -9 4 -16 2 -16 -3 0 -6 12 -10 26
-10 22 0 25 4 22 27 -2 14 -9 28 -16 31 -9 3 -11 -3 -6 -24z"/>
<path d="M1990 854 c0 -32 2 -35 27 -32 22 3 26 8 27 36 1 29 -2 32 -26 32
-25 0 -28 -3 -28 -36z"/>
<path d="M1470 850 c0 -27 3 -30 30 -30 27 0 30 3 30 30 0 27 -3 30 -30 30
-27 0 -30 -3 -30 -30z"/>
<path d="M1550 850 c0 -23 5 -30 19 -30 13 0 20 9 23 30 4 26 1 30 -19 30 -19
0 -23 -5 -23 -30z"/>
<path d="M2136 854 c-8 -30 -8 -31 18 -36 15 -2 21 4 27 30 6 29 4 32 -16 32
-16 0 -25 -8 -29 -26z"/>
<path d="M2270 845 c0 -18 16 -20 23 -2 4 9 6 8 6 -2 1 -8 -7 -20 -16 -27 -16
-12 -15 -13 15 -14 29 0 32 3 32 30 0 27 -3 30 -30 30 -20 0 -30 -5 -30 -15z"/>
<path d="M2350 829 c0 -24 3 -30 16 -25 9 3 22 6 30 6 8 0 14 10 14 25 0 21
-5 25 -30 25 -27 0 -30 -3 -30 -31z"/>
<path d="M360 822 c0 -5 7 -23 15 -38 8 -16 18 -50 21 -76 7 -51 11 -55 37
-35 24 17 12 60 -14 52 -23 -8 -25 4 -3 20 13 9 14 16 5 33 -7 13 -17 19 -26
16 -9 -4 -15 0 -15 9 0 9 -4 19 -10 22 -5 3 -10 2 -10 -3z"/>
<path d="M479 816 c-5 -22 -3 -32 6 -38 17 -13 23 -9 18 12 -5 20 -22 37 -24
26z"/>
<path d="M600 815 c0 -15 35 -65 45 -65 8 0 21 -10 29 -22 l16 -22 0 21 c0 13
-14 33 -35 49 -19 14 -33 29 -30 33 2 4 -2 8 -10 8 -8 0 -15 -1 -15 -2z"/>
<path d="M1783 813 c-19 -7 -16 -30 5 -42 14 -9 15 -10 1 -11 -12 0 -14 -8
-11 -30 3 -24 9 -30 28 -30 31 0 43 29 20 46 -14 9 -16 20 -11 43 7 31 -1 37
-32 24z"/>
<path d="M1840 785 c0 -25 4 -35 16 -35 8 0 12 5 9 10 -3 6 -2 10 4 10 5 0 12
-6 14 -12 3 -7 6 1 6 18 1 20 -5 34 -15 38 -29 11 -34 6 -34 -29z"/>
<path d="M2071 803 c1 -10 4 -29 8 -43 7 -24 7 -24 14 9 10 47 9 51 -8 51 -8
0 -15 -8 -14 -17z"/>
<path d="M937 803 c-4 -3 -7 -19 -7 -35 0 -24 4 -28 30 -28 28 0 30 3 30 35 0
30 -3 35 -23 35 -13 0 -27 -3 -30 -7z"/>
<path d="M1016 803 c-3 -4 -6 -19 -6 -35 0 -24 4 -28 30 -28 23 0 30 5 30 19
0 11 2 25 5 33 4 9 -4 14 -24 15 -16 1 -31 -1 -35 -4z"/>
<path d="M1100 775 c0 -32 2 -35 30 -35 28 0 30 3 30 35 0 32 -2 35 -30 35
-28 0 -30 -3 -30 -35z"/>
<path d="M1190 791 c0 -11 -3 -26 -6 -35 -5 -12 1 -16 24 -16 27 0 30 4 34 35
4 33 2 35 -24 35 -21 0 -28 -5 -28 -19z"/>
<path d="M1270 775 c0 -19 5 -35 10 -35 10 0 14 15 10 35 -1 6 2 6 7 2 4 -5 8
-13 8 -18 0 -5 5 -8 10 -6 9 2 11 20 6 50 0 4 -12 7 -26 7 -22 0 -25 -4 -25
-35z"/>
<path d="M1350 775 c0 -30 3 -35 24 -35 17 0 26 7 30 26 8 31 9 29 -26 38 -27
6 -28 5 -28 -29z"/>
<path d="M1690 780 c0 -19 5 -30 14 -30 16 0 28 37 15 44 -5 2 -4 3 3 2 8 -2
13 -17 12 -37 0 -27 -5 -34 -20 -34 -14 0 -19 -8 -21 -32 -1 -21 3 -33 11 -33
9 0 12 9 9 24 -4 19 -1 24 13 23 22 -2 34 38 21 76 -6 19 -16 27 -33 27 -20 0
-24 -5 -24 -30z"/>
<path d="M1920 776 c0 -32 3 -36 25 -36 21 0 25 5 25 30 0 17 -4 30 -9 30 -5
0 -16 3 -25 6 -13 5 -16 -1 -16 -30z"/>
<path d="M1470 786 c0 -8 9 -17 19 -21 12 -4 18 -12 14 -21 -3 -8 1 -14 11
-14 12 0 16 10 16 35 0 32 -2 35 -30 35 -19 0 -30 -5 -30 -14z"/>
<path d="M1550 766 c0 -33 2 -36 28 -36 26 0 28 3 24 30 -2 17 -8 30 -12 30
-5 0 -15 3 -24 6 -13 5 -16 -1 -16 -30z"/>
<path d="M1990 770 c0 -25 4 -30 24 -30 19 0 25 6 28 30 4 27 2 30 -24 30 -24
0 -28 -4 -28 -30z"/>
<path d="M2110 783 c0 -15 2 -16 10 -3 6 10 10 11 10 3 0 -7 9 -13 20 -13 11
0 20 7 20 15 0 10 -10 15 -30 15 -22 0 -30 -5 -30 -17z"/>
<path d="M2270 742 c0 -27 3 -33 16 -28 9 3 22 6 30 6 9 0 14 10 14 28 0 23
-4 27 -30 28 -28 1 -30 -1 -30 -34z"/>
<path d="M552 762 c-21 -14 -4 -37 28 -39 33 -2 35 0 20 28 -11 20 -27 24 -48
11z"/>
<path d="M821 748 c1 -26 26 -82 31 -72 10 15 -6 77 -20 82 -6 2 -12 -2 -11
-10z"/>
<path d="M2110 749 c0 -6 7 -9 15 -5 24 9 17 -10 -7 -22 l-23 -11 23 0 c27 -1
30 -21 2 -21 -25 0 -25 -8 -2 -27 16 -13 16 -13 -3 -11 -22 3 -22 3 -9 -99 4
-29 10 -50 14 -48 8 5 33 114 30 130 -1 6 -1 12 0 15 1 3 3 29 4 58 3 49 1 52
-21 52 -12 0 -23 -5 -23 -11z"/>
<path d="M457 730 c7 -27 17 -32 47 -24 21 5 24 9 15 25 -6 12 -20 19 -38 19
-24 0 -28 -3 -24 -20z"/>
<path d="M2472 725 c-16 -34 -15 -45 3 -45 10 0 15 11 15 35 0 42 -3 43 -18
10z"/>
<path d="M2438 728 c-5 -11 -13 -15 -23 -12 -10 4 -15 0 -15 -11 0 -12 5 -15
23 -9 29 9 29 9 25 31 -3 17 -4 17 -10 1z"/>
<path d="M1290 720 c-14 -4 -21 -8 -16 -9 5 -1 4 -7 -2 -13 -6 -7 -12 -37 -14
-67 -3 -51 -2 -54 23 -56 24 -3 27 0 31 31 4 30 1 34 -19 34 -13 0 -23 5 -23
10 0 6 11 10 25 10 14 0 25 6 25 13 0 6 3 22 6 35 7 23 3 25 -36 12z"/>
<path d="M1850 715 c0 -9 11 -20 25 -25 14 -5 25 -12 25 -16 0 -3 -11 -3 -25
0 -23 6 -25 4 -25 -29 0 -31 3 -35 25 -35 14 0 26 3 26 8 1 4 2 18 4 32 1 14
5 35 8 46 6 17 3 23 -15 28 -36 9 -48 7 -48 -9z"/>
<path d="M2050 711 c0 -12 -6 -21 -15 -21 -9 0 -15 -9 -15 -25 0 -20 5 -25 24
-25 36 0 51 56 21 80 -13 10 -15 9 -15 -9z"/>
<path d="M2510 711 c0 -13 9 -20 30 -23 26 -4 30 -1 30 19 0 19 -5 23 -30 23
-23 0 -30 -5 -30 -19z"/>
<path d="M868 690 c3 -21 10 -30 23 -30 14 0 19 7 19 30 0 25 -4 30 -23 30
-20 0 -23 -4 -19 -30z"/>
<path d="M930 690 c0 -16 3 -30 8 -31 4 0 17 -2 30 -5 19 -3 22 0 22 31 0 32
-2 35 -30 35 -27 0 -30 -3 -30 -30z"/>
<path d="M1010 684 c0 -31 2 -34 30 -34 27 0 30 3 30 33 0 31 -3 34 -30 35
-28 1 -30 -2 -30 -34z"/>
<path d="M1092 686 c-1 -31 1 -33 28 -32 17 1 30 6 30 11 0 6 3 20 6 33 6 20
3 22 -28 22 -32 0 -35 -2 -36 -34z"/>
<path d="M1180 687 c0 -32 2 -33 30 -29 25 4 30 9 30 33 0 26 -4 29 -30 29
-27 0 -30 -3 -30 -33z"/>
<path d="M1348 690 c-5 -36 0 -44 19 -29 9 9 13 8 13 0 0 -6 4 -11 8 -11 4 0
8 16 8 35 0 29 -4 35 -22 35 -17 0 -23 -7 -26 -30z"/>
<path d="M1470 681 c0 -22 6 -30 25 -35 14 -4 25 -13 25 -21 0 -9 -6 -12 -15
-9 -10 4 -15 0 -15 -15 0 -12 -4 -21 -10 -21 -19 0 -10 -18 11 -23 30 -8 48 2
55 29 4 15 0 29 -11 40 -12 12 -15 27 -12 51 5 31 4 33 -24 33 -25 0 -29 -4
-29 -29z"/>
<path d="M1550 675 c0 -32 3 -35 28 -35 25 0 29 4 30 29 0 22 -5 30 -21 35
-35 9 -37 8 -37 -29z"/>
<path d="M1937 688 c-7 -27 -9 -26 28 -30 24 -2 31 1 33 18 2 15 -4 23 -20 28
-34 9 -35 8 -41 -16z"/>
<path d="M560 691 c0 -27 14 -41 42 -41 25 0 29 4 26 23 -2 17 -11 23 -35 25
-18 2 -33 -1 -33 -7z"/>
<path d="M649 678 c4 -12 20 -25 34 -29 30 -8 30 -9 18 23 -6 15 -18 24 -35
26 -22 1 -24 -1 -17 -20z"/>
<path d="M499 681 c-24 -6 -25 -8 -14 -35 8 -18 15 -24 19 -17 4 6 15 11 25
11 14 0 17 6 13 25 -2 14 -7 24 -11 24 -3 -1 -18 -4 -32 -8z"/>
<path d="M728 660 c2 -16 8 -30 13 -30 5 0 6 7 3 15 -4 8 -3 15 0 15 4 0 11
-10 16 -22 8 -21 9 -20 9 8 1 20 -5 34 -15 38 -27 10 -31 7 -26 -24z"/>
<path d="M1731 670 c4 -48 -1 -81 -11 -75 -6 4 -8 15 -5 26 4 11 2 19 -4 19
-6 0 -11 -16 -11 -36 0 -28 3 -35 15 -30 9 3 15 0 15 -9 0 -8 -7 -15 -15 -15
-10 0 -15 -10 -15 -30 0 -20 5 -30 15 -30 19 0 20 -16 2 -23 -18 -7 -10 -64
10 -71 12 -5 14 -1 10 20 -2 15 -1 41 4 57 5 19 5 35 -2 43 -7 8 -7 14 1 19 6
4 10 22 8 40 -1 19 1 37 5 41 8 8 -2 55 -15 69 -6 6 -9 1 -7 -15z"/>
<path d="M2218 683 c-12 -3 -18 -14 -18 -34 0 -31 6 -35 30 -18 13 9 12 10 -2
5 -13 -4 -18 0 -18 14 0 22 16 27 23 8 3 -7 6 -3 6 10 1 12 0 21 -1 21 -2 -1
-11 -3 -20 -6z"/>
<path d="M357 673 c-4 -3 -7 -20 -7 -36 0 -25 2 -28 15 -17 8 7 15 23 15 36 0
23 -10 31 -23 17z"/>
<path d="M1780 649 c0 -16 4 -28 9 -24 5 3 12 1 16 -5 11 -18 25 0 25 31 0 24
-4 29 -25 29 -21 0 -25 -5 -25 -31z"/>
<path d="M2401 662 c-6 -11 -8 -28 -5 -36 3 -9 2 -16 -4 -16 -6 0 -15 -13 -21
-30 -10 -29 -9 -30 20 -30 28 0 30 2 24 28 -3 16 0 42 7 58 l12 29 3 -26 c3
-22 8 -25 33 -21 36 5 41 37 8 45 -13 3 -33 8 -45 12 -16 5 -24 1 -32 -13z"/>
<path d="M2338 662 c-24 -3 -28 -8 -28 -34 0 -23 4 -29 15 -24 22 8 18 -6 -10
-33 -31 -29 -28 -35 8 -18 18 8 27 20 27 35 0 13 5 32 11 43 14 27 9 35 -23
31z"/>
<path d="M2520 645 c0 -21 5 -25 31 -25 24 0 30 3 25 16 -3 9 -6 20 -6 25 0 5
-11 9 -25 9 -20 0 -25 -5 -25 -25z"/>
<path d="M426 647 c-13 -9 -16 -20 -12 -34 6 -18 10 -19 30 -10 16 8 21 17 18
34 -5 26 -11 28 -36 10z"/>
<path d="M854 635 c-3 -8 -3 -19 1 -25 3 -5 -1 -10 -9 -10 -20 0 -21 -16 -1
-24 8 -3 15 -16 15 -28 0 -13 9 -34 20 -48 l20 -25 0 34 c0 21 -7 39 -17 47
-17 13 -17 13 0 14 11 0 17 8 17 25 0 14 0 28 1 32 0 4 -9 11 -21 15 -14 5
-22 3 -26 -7z"/>
<path d="M602 633 c-16 -3 -22 -9 -18 -20 3 -8 6 -19 6 -24 0 -5 14 -9 30 -9
17 0 30 3 30 8 0 18 -13 52 -19 51 -3 -1 -16 -4 -29 -6z"/>
<path d="M930 605 c0 -27 4 -34 25 -37 23 -5 25 -2 25 31 0 31 -3 36 -25 37
-22 2 -25 -2 -25 -31z"/>
<path d="M1118 633 c-23 -4 -28 -9 -28 -34 0 -26 3 -29 30 -29 28 0 30 3 30
35 0 19 -1 34 -2 34 -2 -1 -15 -4 -30 -6z"/>
<path d="M1180 628 c0 -7 -3 -23 -6 -35 -6 -20 -3 -23 24 -23 27 0 30 4 34 35
4 33 2 35 -24 35 -16 0 -28 -6 -28 -12z"/>
<path d="M1340 626 c0 -6 -3 -21 -6 -33 -6 -20 -3 -23 25 -23 20 0 31 5 31 14
0 8 3 21 6 29 4 10 -4 16 -25 19 -18 3 -31 0 -31 -6z"/>
<path d="M1922 615 c-1 -14 3 -25 8 -25 6 0 10 7 10 15 0 8 7 15 16 15 11 0
15 -6 11 -20 -3 -11 -2 -20 3 -20 6 0 19 33 20 50 0 3 -15 6 -33 7 -28 2 -33
-1 -35 -22z"/>
<path d="M670 618 c0 -7 5 -20 10 -28 9 -13 11 -13 20 0 8 13 10 12 10 -2 0
-10 5 -18 10 -18 14 0 13 33 -2 48 -16 16 -48 15 -48 0z"/>
<path d="M1008 601 c-4 -26 -1 -30 23 -33 24 -4 28 -1 31 29 4 30 2 33 -23 33
-22 0 -28 -5 -31 -29z"/>
<path d="M1417 623 c-12 -11 -8 -55 4 -47 6 3 15 0 20 -7 6 -10 9 -2 9 24 0
35 -15 49 -33 30z"/>
<path d="M2005 602 c-7 -28 -8 -27 28 -36 20 -5 27 -3 27 8 0 8 3 21 6 29 4
10 -4 16 -25 19 -25 4 -31 0 -36 -20z"/>
<path d="M368 603 c-9 -10 -13 -25 -9 -35 5 -14 9 -14 24 -4 13 10 15 19 9 35
-8 21 -9 21 -24 4z"/>
<path d="M517 613 c-12 -3 -17 -12 -15 -26 2 -18 9 -21 33 -19 37 4 35 3 28
30 -5 22 -12 24 -46 15z"/>
<path d="M1579 611 c8 -5 12 -18 8 -30 -3 -14 0 -21 9 -21 9 0 14 11 14 30 0
24 -4 30 -22 30 -17 0 -20 -3 -9 -9z"/>
<path d="M748 585 c4 -25 19 -41 28 -32 7 7 -14 57 -24 57 -5 0 -7 -11 -4 -25z"/>
<path d="M443 586 c-17 -8 -21 -16 -17 -31 9 -27 8 -27 37 -16 19 8 24 15 20
31 -7 26 -13 29 -40 16z"/>
<path d="M1781 590 c-1 -8 -4 -25 -7 -37 -5 -17 -2 -23 10 -23 17 0 19 11 6
50 -4 14 -9 18 -9 10z"/>
<path d="M2442 573 c2 -22 9 -28 31 -30 24 -2 27 2 27 28 0 26 -3 29 -31 29
-27 0 -30 -3 -27 -27z"/>
<path d="M2524 584 c3 -9 6 -19 6 -23 0 -4 9 -7 19 -7 12 0 21 9 24 23 4 20 0
23 -25 23 -23 0 -29 -4 -24 -16z"/>
<path d="M1836 565 c-9 -34 -2 -43 28 -38 17 4 25 13 28 34 5 32 -1 36 -21 17
-11 -10 -13 -10 -7 0 4 7 1 12 -7 12 -8 0 -18 -11 -21 -25z"/>
<path d="M790 563 c0 -10 4 -24 9 -32 13 -21 24 5 11 29 -13 25 -20 26 -20 3z"/>
<path d="M1916 564 c-11 -29 -6 -42 19 -46 18 -4 26 0 31 14 3 11 4 20 2 21
-1 1 -13 7 -25 14 -17 10 -22 9 -27 -3z"/>
<path d="M2253 572 c-18 -3 -23 -10 -23 -33 0 -40 25 -37 49 8 13 25 6 31 -26
25z"/>
<path d="M2075 549 c-4 -11 -4 -61 0 -110 6 -78 5 -89 -9 -89 -9 0 -16 8 -16
18 0 12 -4 10 -13 -8 -13 -25 -27 -28 -58 -16 -12 5 -19 0 -24 -16 l-8 -23 -4
23 c-2 12 -8 22 -13 22 -5 0 -19 -10 -30 -22 l-21 -23 45 -3 c25 -2 69 4 97
12 69 21 108 20 126 -1 13 -17 14 -16 8 7 -4 14 -9 37 -12 52 -5 25 -33 49
-33 28 0 -6 -4 -10 -8 -10 -4 0 -8 16 -8 35 0 22 5 35 13 35 18 0 16 18 -6 41
-11 12 -16 29 -13 44 5 30 -4 33 -13 4z"/>
<path d="M382 548 c-13 -13 -16 -50 -6 -61 8 -8 34 18 34 35 0 25 -15 39 -28
26z"/>
<path d="M555 552 c-29 -6 -38 -17 -30 -41 5 -17 12 -20 33 -15 35 9 35 9 26
36 -6 17 -15 23 -29 20z"/>
<path d="M600 554 c0 -20 24 -44 45 -44 20 0 25 5 25 25 0 22 -4 25 -35 25
-19 0 -35 -3 -35 -6z"/>
<path d="M690 546 c0 -18 14 -33 36 -40 18 -6 21 -3 17 18 -5 24 -53 45 -53
22z"/>
<path d="M1193 552 c-19 -3 -23 -10 -23 -36 0 -30 3 -33 24 -29 17 4 25 13 28
34 5 34 2 37 -29 31z"/>
<path d="M1250 523 c0 -34 3 -38 25 -38 17 0 25 5 25 18 0 10 -4 16 -9 12 -5
-3 -11 5 -13 17 -6 39 -28 33 -28 -9z"/>
<path d="M922 515 c-2 -33 -1 -35 28 -35 28 0 30 3 30 35 0 32 -3 35 -28 35
-25 0 -28 -4 -30 -35z"/>
<path d="M1002 515 c-1 -32 1 -35 28 -35 27 0 30 3 30 33 0 29 -3 33 -28 35
-26 2 -29 -1 -30 -33z"/>
<path d="M1084 536 c-3 -8 -4 -23 -2 -33 5 -25 58 -26 58 -2 0 10 3 24 6 33 5
13 -1 16 -25 16 -18 0 -34 -6 -37 -14z"/>
<path d="M1330 516 c0 -32 2 -35 28 -33 23 2 27 7 30 35 2 23 -1 32 -11 32
-10 0 -13 -7 -10 -19 3 -10 0 -22 -6 -25 -7 -5 -11 3 -11 18 0 14 -4 26 -10
26 -5 0 -10 -15 -10 -34z"/>
<path d="M1410 514 c0 -23 5 -33 20 -37 15 -4 20 0 20 13 0 10 -6 21 -12 23
-10 4 -10 6 0 6 21 2 13 27 -8 27 -16 0 -20 -7 -20 -32z"/>
<path d="M1625 542 c-9 -10 -5 -62 5 -62 6 0 10 9 10 19 0 11 5 23 11 27 8 5
10 -1 7 -20 -4 -18 -1 -26 8 -26 9 0 14 12 14 34 0 29 -3 34 -25 34 -13 0 -27
-3 -30 -6z"/>
<path d="M1990 523 c0 -14 3 -23 8 -19 4 4 7 12 7 17 0 18 20 9 23 -11 5 -31
22 -24 22 10 0 27 -3 30 -30 30 -26 0 -30 -4 -30 -27z"/>
<path d="M1460 531 c0 -5 9 -7 20 -4 14 4 20 0 20 -12 0 -9 -9 -19 -20 -22
-28 -7 -25 -23 5 -23 22 0 25 4 25 35 0 31 -3 35 -25 35 -14 0 -25 -4 -25 -9z"/>
<path d="M1585 532 c-15 -11 -13 -62 2 -62 8 0 13 13 13 35 0 38 0 38 -15 27z"/>
<path d="M2313 529 c-13 -5 -23 -13 -23 -18 0 -5 -3 -16 -6 -25 -5 -12 0 -16
19 -16 20 0 27 6 32 31 8 37 6 39 -22 28z"/>
<path d="M2525 519 c-5 -13 -2 -25 6 -30 16 -9 15 -11 23 24 8 33 -19 39 -29
6z"/>
<path d="M457 518 c-11 -9 -15 -21 -11 -35 7 -26 11 -27 40 -10 17 9 20 17 13
35 -10 25 -18 27 -42 10z"/>
<path d="M2360 499 c0 -24 4 -28 28 -26 21 2 28 8 30 29 3 24 0 27 -27 26 -27
-1 -31 -5 -31 -29z"/>
<path d="M2445 519 c-3 -4 -2 -10 3 -13 11 -7 52 4 52 14 0 10 -49 10 -55 -1z"/>
<path d="M1766 503 c-14 -36 -6 -53 24 -53 26 0 30 3 30 29 0 22 -5 30 -24 33
-16 3 -27 0 -30 -9z"/>
<path d="M1840 480 c0 -19 5 -30 14 -30 8 0 16 13 18 30 4 24 1 30 -14 30 -13
0 -18 -8 -18 -30z"/>
<path d="M1896 488 c-9 -34 -8 -35 20 -41 19 -3 27 0 33 16 6 17 3 24 -17 34
-31 16 -29 17 -36 -9z"/>
<path d="M2247 495 c-13 -9 -17 -23 -15 -47 3 -28 5 -30 12 -13 4 11 13 30 19
42 13 29 7 35 -16 18z"/>
<path d="M663 494 c3 -4 30 -12 59 -19 44 -9 53 -15 54 -34 1 -22 24 -55 24
-35 0 5 -5 15 -11 21 -7 7 -6 12 5 16 15 6 20 -3 17 -30 -1 -6 3 -14 9 -18 13
-8 13 -35 0 -35 -5 0 -10 7 -10 15 0 9 -9 15 -25 15 -14 0 -25 -4 -25 -9 0
-15 31 -35 59 -39 14 -2 37 -10 49 -18 25 -16 39 -13 27 5 -3 6 -14 11 -24 11
-17 0 -24 16 -47 98 -3 14 -19 29 -38 37 -35 15 -134 30 -123 19z"/>
<path d="M2570 477 c0 -32 16 -44 23 -17 3 10 -1 24 -9 31 -11 9 -14 7 -14
-14z"/>
<path d="M400 475 c-15 -18 -4 -56 16 -48 15 6 20 -12 5 -22 -6 -3 -6 -17 0
-35 l11 -29 27 32 c15 18 30 40 34 49 4 10 12 15 21 12 8 -3 26 1 41 8 24 13
25 15 10 28 -15 12 -18 12 -27 -3 -5 -10 -17 -16 -26 -13 -9 3 -26 -1 -36 -9
-15 -11 -17 -17 -7 -29 9 -10 9 -16 1 -21 -7 -4 -14 2 -17 14 -3 12 -9 21 -14
21 -5 0 -9 11 -9 24 0 31 -14 40 -30 21z"/>
<path d="M593 478 c2 -7 9 -13 15 -12 7 1 21 2 33 3 31 2 12 21 -22 21 -20 0
-29 -4 -26 -12z"/>
<path d="M2455 480 c3 -6 -1 -7 -9 -4 -10 4 -16 1 -16 -9 0 -8 10 -17 23 -21
33 -9 34 -8 39 19 4 21 1 25 -19 25 -13 0 -21 -4 -18 -10z"/>
<path d="M2186 467 c-15 -11 -17 -19 -10 -40 13 -37 37 -20 32 22 -3 30 -5 31
-22 18z"/>
<path d="M2510 451 c0 -16 6 -31 14 -34 28 -11 36 24 12 49 -21 20 -26 18 -26
-15z"/>
<path d="M920 452 c0 -26 39 -112 50 -112 15 0 12 38 -2 43 -10 4 -10 6 0 6
18 1 16 71 -2 71 -8 0 -21 3 -30 6 -11 4 -16 0 -16 -14z"/>
<path d="M1085 462 c-3 -3 -5 -18 -5 -34 0 -24 4 -28 30 -28 26 0 30 3 30 29
0 23 -5 30 -25 33 -13 3 -27 3 -30 0z"/>
<path d="M1167 463 c-4 -3 -7 -19 -7 -35 0 -24 4 -28 30 -28 28 0 30 3 30 35
0 30 -3 35 -23 35 -13 0 -27 -3 -30 -7z"/>
<path d="M1240 434 c0 -31 3 -34 30 -34 27 0 30 3 30 33 0 29 -3 32 -30 33
-28 1 -30 -2 -30 -32z"/>
<path d="M637 453 c-19 -5 -18 -29 1 -27 7 1 22 2 33 3 18 1 19 3 9 16 -7 8
-15 14 -19 14 -3 -1 -14 -3 -24 -6z"/>
<path d="M702 446 c8 -7 25 -17 38 -21 25 -8 25 -8 6 14 -11 11 -28 21 -38 21
-16 0 -17 -2 -6 -14z"/>
<path d="M1000 430 c0 -27 3 -30 30 -30 27 0 30 3 30 30 0 27 -3 30 -30 30
-27 0 -30 -3 -30 -30z"/>
<path d="M1330 446 c0 -8 -3 -21 -6 -29 -4 -10 4 -16 25 -19 29 -4 31 -3 31
29 0 29 -3 33 -25 33 -15 0 -25 -6 -25 -14z"/>
<path d="M1410 425 c0 -24 5 -35 15 -35 10 0 15 11 15 35 0 24 -5 35 -15 35
-10 0 -15 -11 -15 -35z"/>
<path d="M1568 452 c-24 -3 -28 -8 -28 -33 0 -16 4 -29 9 -29 5 0 8 11 5 25
-3 18 0 25 12 25 11 0 15 -8 12 -27 -4 -34 18 -42 26 -8 9 35 -3 51 -36 47z"/>
<path d="M1620 450 c0 -5 8 -9 18 -7 9 1 17 -2 17 -8 0 -5 -6 -9 -12 -9 -7 1
-13 -7 -13 -17 0 -14 7 -19 25 -19 22 0 25 4 25 35 0 32 -2 35 -30 35 -16 0
-30 -4 -30 -10z"/>
<path d="M1461 420 c0 -19 3 -29 6 -23 3 10 8 9 20 -3 19 -18 20 -17 26 24 4
22 1 32 -8 32 -7 0 -16 -6 -18 -12 -4 -10 -8 -9 -16 2 -8 12 -11 7 -10 -20z"/>
<path d="M2358 434 c-8 -9 -32 -16 -52 -17 -41 -1 -45 -9 -16 -30 11 -8 17
-17 13 -20 -3 -4 -1 -7 5 -7 6 0 16 9 22 20 8 16 17 18 43 13 17 -3 45 -16 60
-27 24 -18 29 -18 37 -6 12 19 13 60 1 60 -5 0 -11 -7 -13 -15 -2 -10 -7 -12
-18 -5 -13 9 -13 11 0 20 13 8 12 10 -2 10 -10 0 -18 -7 -18 -15 0 -8 -4 -15
-10 -15 -5 0 -10 11 -10 25 0 29 -18 32 -42 9z"/>
<path d="M558 422 c-23 -15 -25 -19 -13 -35 13 -18 15 -18 39 -2 29 19 32 28
13 43 -9 8 -20 6 -39 -6z"/>
<path d="M1760 421 c0 -11 -4 -23 -10 -26 -19 -12 -10 -25 19 -25 23 0 30 5
35 26 8 30 8 29 -21 38 -19 6 -23 3 -23 -13z"/>
<path d="M1855 423 c-44 -11 -47 -53 -5 -53 27 0 30 3 30 30 0 17 -1 29 -2 29
-2 -1 -12 -4 -23 -6z"/>
<path d="M2564 406 c-4 -16 -2 -32 4 -38 8 -8 13 -3 18 16 4 16 2 32 -4 38 -8
8 -13 3 -18 -16z"/>
<path d="M671 409 c-22 -9 -23 -11 -10 -25 19 -19 49 -8 49 17 0 21 -4 22 -39
8z"/>
<path d="M1960 396 c0 -14 4 -26 9 -26 5 0 18 -3 28 -6 15 -5 15 -4 3 5 -8 5
-15 18 -15 27 0 10 -6 19 -12 21 -8 3 -13 -5 -13 -21z"/>
<path d="M2214 395 c-11 -27 0 -36 25 -19 18 13 20 18 10 25 -20 12 -29 11
-35 -6z"/>
<path d="M2498 376 c-5 -26 7 -46 29 -46 19 0 17 57 -3 64 -22 8 -21 9 -26
-18z"/>
<path d="M486 371 c-15 -16 -15 -22 -4 -40 l12 -20 23 20 c18 18 20 25 10 40
-15 24 -20 24 -41 0z"/>
<path d="M598 370 c-24 -14 -26 -19 -15 -35 13 -17 15 -17 41 0 22 15 24 20
14 34 -7 9 -12 17 -13 17 0 1 -12 -6 -27 -16z"/>
<path d="M1711 372 c-13 -25 -14 -62 -2 -62 8 0 22 70 15 78 -1 2 -7 -5 -13
-16z"/>
<path d="M995 372 c-13 -13 -4 -42 14 -42 11 0 26 -3 35 -6 11 -4 15 1 14 24
-1 27 -4 30 -29 30 -16 -1 -31 -3 -34 -6z"/>
<path d="M1078 349 c-3 -21 0 -29 16 -33 37 -10 42 -7 43 28 1 32 -1 35 -27
34 -23 -1 -29 -6 -32 -29z"/>
<path d="M1160 346 c0 -28 4 -34 24 -38 22 -4 25 -1 28 34 3 36 2 38 -24 38
-25 0 -28 -4 -28 -34z"/>
<path d="M1238 345 c-4 -32 -2 -35 23 -35 27 0 39 15 39 51 0 14 -7 19 -29 19
-25 0 -29 -4 -33 -35z"/>
<path d="M1320 345 c0 -30 3 -35 24 -35 17 0 26 7 30 26 8 31 9 29 -26 38 -27
6 -28 5 -28 -29z"/>
<path d="M1418 373 c-13 -3 -18 -14 -18 -37 0 -25 4 -32 20 -32 16 0 20 7 20
38 0 21 -1 37 -2 37 -2 -1 -11 -3 -20 -6z"/>
<path d="M1630 345 c0 -31 3 -35 25 -35 22 0 25 4 25 35 0 31 -3 35 -25 35
-22 0 -25 -4 -25 -35z"/>
<path d="M2351 366 c-9 -10 -6 -17 12 -29 21 -14 24 -14 35 3 8 13 8 21 2 25
-6 4 -9 1 -8 -7 2 -7 -4 -13 -12 -13 -8 0 -14 8 -14 18 2 21 0 21 -15 3z"/>
<path d="M702 360 c-19 -8 -21 -13 -12 -30 6 -11 16 -20 23 -20 19 1 51 29 43
37 -4 5 -13 0 -20 -9 -8 -10 -17 -14 -25 -8 -10 6 -8 9 8 15 11 3 21 11 21 16
0 11 -8 11 -38 -1z"/>
<path d="M1587 363 c-4 -3 -7 -15 -7 -25 0 -26 -28 -22 -33 5 -3 16 -5 13 -6
-10 -1 -31 1 -33 34 -33 33 0 35 2 35 35 0 33 -8 43 -23 28z"/>
<path d="M1460 330 c0 -25 4 -30 25 -30 21 0 25 5 25 30 0 25 -4 30 -25 30
-21 0 -25 -5 -25 -30z"/>
<path d="M2177 346 c-4 -11 -1 -13 11 -9 15 6 15 5 3 -10 -12 -15 -11 -17 3
-17 17 0 20 9 10 34 -8 20 -20 21 -27 2z"/>
<path d="M1740 328 c0 -13 8 -18 30 -18 23 0 30 4 30 20 0 16 -6 20 -30 18
-21 -2 -30 -7 -30 -20z"/>
<path d="M1820 332 c0 -13 8 -21 25 -24 20 -4 25 -1 25 14 0 11 -5 16 -10 13
-6 -4 -17 -1 -25 5 -12 10 -15 9 -15 -8z"/>
<path d="M2232 330 c-10 -17 -10 -20 6 -20 11 0 27 9 37 20 18 19 17 20 -6 20
-13 0 -30 -9 -37 -20z"/>
<path d="M2556 338 c-14 -46 -15 -67 -1 -78 18 -15 20 1 3 18 -9 9 -8 12 5 12
12 0 17 8 17 30 0 30 -17 42 -24 18z"/>
<path d="M526 313 c-17 -23 -17 -26 -2 -41 15 -15 18 -15 38 6 22 22 22 22 3
41 -20 19 -20 19 -39 -6z"/>
<path d="M632 320 c-22 -18 -22 -20 -6 -45 13 -20 19 -23 31 -14 10 9 11 14 2
19 -8 6 -8 9 0 14 6 4 11 2 11 -3 0 -6 5 -11 10 -11 14 0 12 12 -8 37 -17 22
-17 22 -40 3z"/>
<path d="M2422 328 c-17 -17 -15 -31 2 -25 10 4 13 1 10 -7 -10 -25 17 -28 42
-5 31 29 45 17 16 -14 -24 -25 -20 -40 6 -30 11 5 14 2 9 -10 -9 -24 8 -29 27
-8 15 17 15 19 -4 36 -15 13 -17 21 -9 26 9 5 7 12 -6 26 -13 12 -20 14 -23 5
-3 -9 -9 -8 -25 3 -26 18 -30 18 -45 3z"/>
<path d="M432 306 c-8 -18 -8 -28 2 -41 11 -15 13 -15 30 3 15 17 15 23 4 41
-17 27 -22 26 -36 -3z"/>
<path d="M816 305 c19 -29 27 -31 43 -11 9 11 5 16 -20 25 -42 15 -42 15 -23
-14z"/>
<path d="M2297 319 c-17 -10 -16 -12 8 -31 25 -19 27 -19 45 -3 19 17 19 19 2
31 -21 16 -31 17 -55 3z"/>
<path d="M753 308 c-28 -13 -28 -16 -5 -50 17 -26 17 -26 41 -7 22 18 23 20 7
44 -9 14 -17 25 -19 24 -1 0 -12 -5 -24 -11z"/>
<path d="M2200 293 c-36 -7 -46 -20 -20 -28 16 -5 28 -1 43 14 12 12 17 20 12
20 -6 -1 -21 -4 -35 -6z"/>
<path d="M860 275 c-9 -11 -10 -22 -3 -37 9 -20 9 -20 26 6 25 38 5 65 -23 31z"/>
<path d="M2244 269 c-18 -20 -18 -21 6 -39 25 -18 25 -18 47 2 13 12 22 22 20
23 -1 0 -14 8 -28 18 -25 15 -28 15 -45 -4z"/>
<path d="M2367 273 c-16 -16 -15 -18 5 -40 l22 -23 22 21 23 22 -23 18 c-29
23 -28 23 -49 2z"/>
<path d="M567 258 c-17 -18 -17 -21 -3 -44 l16 -24 21 21 c19 19 20 24 8 45
-15 28 -18 29 -42 2z"/>
<path d="M475 250 c-18 -20 -18 -21 1 -41 20 -20 20 -20 34 6 12 22 12 28 -1
41 -14 13 -17 12 -34 -6z"/>
<path d="M679 251 l-23 -18 20 -25 c20 -25 20 -25 43 -6 22 17 23 21 11 43
-16 30 -21 31 -51 6z"/>
<path d="M2057 214 c-31 -31 -57 -58 -57 -60 0 -2 7 -4 15 -4 8 0 34 -19 58
-43 51 -50 153 -107 192 -107 22 0 25 3 16 14 -7 8 -21 12 -31 9 -11 -3 -20
-1 -20 5 0 9 -30 23 -55 26 -5 1 -20 11 -34 24 -13 12 -27 22 -31 22 -14 0
-80 64 -73 70 5 3 28 27 53 53 62 66 35 59 -33 -9z"/>
<path d="M2125 240 c-16 -18 -17 -23 -5 -30 22 -14 35 -12 55 10 20 22 19 25
-11 34 -14 4 -27 0 -39 -14z"/>
<path d="M797 230 c-18 -18 -18 -20 -1 -48 l17 -30 -31 -27 c-18 -15 -32 -36
-32 -48 0 -15 -3 -18 -11 -10 -14 14 -57 -26 -50 -46 3 -10 -1 -13 -12 -8 -9
3 -19 2 -22 -3 -4 -6 3 -10 14 -10 25 0 76 43 107 89 13 20 36 54 52 77 28 39
29 41 11 62 -20 26 -19 26 -42 2z"/>
<path d="M2313 218 l-22 -21 25 -20 c25 -20 26 -20 45 0 19 19 19 19 -4 41
l-23 22 -21 -22z"/>
<path d="M2438 219 c-22 -23 -22 -25 0 -47 18 -18 19 -18 42 0 l24 19 -25 23
c-23 23 -24 23 -41 5z"/>
<path d="M2189 207 c-15 -21 -15 -23 6 -39 21 -16 23 -16 44 6 l22 23 -25 17
c-31 20 -28 20 -47 -7z"/>
<path d="M2547 207 c-13 -20 -13 -25 3 -44 17 -22 18 -22 35 -3 16 17 16 20 0
44 -10 14 -19 26 -20 26 -1 0 -9 -10 -18 -23z"/>
<path d="M518 196 c-13 -18 -14 -26 -4 -44 12 -22 13 -22 29 -4 20 22 21 31 4
53 -11 15 -14 14 -29 -5z"/>
<path d="M613 198 c-21 -23 -21 -23 -3 -48 18 -24 19 -24 39 -6 25 23 25 25 3
54 l-18 23 -21 -23z"/>
<path d="M438 194 c-5 -21 11 -64 22 -64 17 0 16 39 0 60 -17 22 -18 22 -22 4z"/>
<path d="M731 187 c-19 -21 -20 -27 -8 -49 l13 -26 25 22 c24 21 25 23 9 49
l-17 27 -22 -23z"/>
<path d="M2072 179 c-11 -18 -11 -23 5 -34 16 -12 20 -11 35 8 12 16 14 25 6
34 -15 19 -31 16 -46 -8z"/>
<path d="M2254 159 c-18 -20 -18 -21 6 -40 31 -23 32 -23 48 2 11 18 11 24 -4
40 -22 24 -27 24 -50 -2z"/>
<path d="M2375 160 c-18 -20 -18 -21 4 -41 l23 -22 21 21 c20 21 20 22 2 42
-23 25 -27 25 -50 0z"/>
<path d="M2136 144 c-16 -24 -16 -26 6 -44 13 -10 23 -18 23 -17 0 1 10 13 22
27 l23 26 -29 17 c-28 16 -29 16 -45 -9z"/>
<path d="M2495 150 c-19 -21 -13 -42 7 -22 7 7 17 12 23 12 5 0 1 -7 -9 -15
-14 -10 -17 -18 -10 -25 7 -7 16 -4 28 9 15 16 15 22 4 40 -16 26 -20 26 -43
1z"/>
<path d="M557 134 c-17 -23 -18 -27 -2 -50 l16 -25 20 25 c19 24 19 27 3 51
-9 14 -17 25 -18 25 0 0 -9 -12 -19 -26z"/>
<path d="M474 125 c-4 -17 -1 -32 10 -44 9 -10 16 -23 16 -29 0 -7 7 -12 16
-12 8 0 12 -4 9 -10 -3 -6 1 -7 9 -4 21 8 20 27 -3 48 -15 13 -20 14 -25 4 -3
-7 -3 1 0 18 7 42 -22 69 -32 29z"/>
<path d="M663 128 c-20 -19 -21 -24 -8 -49 l15 -28 24 22 c23 20 23 23 10 49
-8 16 -16 28 -17 28 -1 0 -12 -10 -24 -22z"/>
<path d="M1920 122 c-43 -22 -90 -52 -108 -70 -19 -17 -80 -42 -105 -42 -11 0
-18 -3 -14 -6 3 -4 26 -3 51 0 31 5 64 22 108 54 35 26 75 55 89 64 31 22 23
22 -21 0z"/>
<path d="M2212 107 c-22 -29 -21 -34 3 -29 19 3 25 0 25 -13 0 -14 3 -15 15
-5 21 17 19 25 -9 43 -19 13 -26 13 -34 4z"/>
<path d="M2321 99 c-11 -19 -10 -24 8 -43 l21 -20 22 21 21 22 -24 20 c-30 26
-31 25 -48 0z"/>
<path d="M2439 97 c-15 -20 -14 -23 2 -41 18 -19 20 -19 38 -1 19 16 19 18 3
41 -21 29 -23 29 -43 1z"/>
<path d="M2548 83 c-15 -17 -15 -20 2 -40 l18 -22 18 20 c14 15 16 24 8 36
-15 24 -28 26 -46 6z"/>
<path d="M605 70 c-15 -17 -16 -24 -7 -45 14 -30 28 -32 42 -5 8 15 7 27 -3
45 l-13 26 -19 -21z"/>
<path d="M2287 64 c-12 -13 -8 -22 14 -27 15 -4 20 -11 15 -23 -6 -14 -4 -15
9 -4 15 12 15 14 1 22 -8 5 -19 15 -24 24 -4 8 -11 11 -15 8z"/>
<path d="M2386 41 c-18 -19 -15 -41 5 -41 6 0 7 5 4 10 -8 14 8 13 22 -1 21
-21 34 1 16 26 -22 30 -25 30 -47 6z"/>
<path d="M2497 32 c-24 -27 -21 -32 18 -32 39 0 44 9 17 34 -18 15 -20 15 -35
-2z"/>
<path d="M2595 20 c-18 -20 -17 -20 14 -20 29 0 31 2 21 20 -13 25 -13 25 -35
0z"/>
</g>
</svg>
